<svg xmlns="http://www.w3.org/2000/svg" viewBox="280 390 720 620" width="512" height="512">
  <!-- myQRID Gradient Q Icon — from Verified_Final_Master_Logo.svg FROZEN MASTER -->
  <!-- Pure gradient, fully transparent background, no overlapping fills -->
  <path fill="#F6455C" d="M603.937683,840.675720  C581.119690,839.350403 559.197632,833.956848 538.275940,825.001343  C470.022186,795.785156 425.168671,745.756897 405.868011,673.757996  C402.663177,661.802734 401.996307,649.167175 400.555511,636.501282  C405.116486,640.099670 409.307098,644.013245 413.420868,648.005981  C414.477814,649.031860 415.288391,650.310669 416.219482,651.467346  C419.327881,655.328674 422.129028,659.497131 425.610229,662.986938  C434.800079,672.199646 444.304962,681.097534 453.643555,690.162842  C457.310455,693.722473 461.057465,697.227356 464.435303,701.051025  C470.652679,708.088989 480.941589,711.516724 483.174011,722.139282  C483.336487,722.912292 484.527954,723.496399 485.286285,724.112671  C492.917419,730.313660 500.564850,736.494568 508.185394,742.708496  C508.952881,743.334351 509.612274,744.107056 510.257416,744.866333  C515.486633,751.020630 523.690979,754.654663 525.927368,763.369263  C526.069885,763.924561 526.832764,764.315247 527.294128,764.794983  C535.631592,773.464844 543.963806,782.139709 552.305298,790.805664  C554.466614,793.051086 556.633057,795.292419 558.836853,797.495911  C562.567871,801.226562 566.270203,804.988953 570.091187,808.626038  C581.345276,819.338745 592.651733,829.996460 603.937683,840.675720  z"/>
  <path fill="#F85451" d="M604.277954,840.770020  C592.651733,829.996460 581.345276,819.338745 570.091187,808.626038  C566.270203,804.988953 562.567871,801.226562 558.836853,797.495911  C556.633057,795.292419 554.466614,793.051086 552.305298,790.805664  C543.963806,782.139709 535.631592,773.464844 527.294128,764.794983  C526.832764,764.315247 526.069885,763.924561 525.927368,763.369263  C523.690979,754.654663 515.486633,751.020630 510.257416,744.866333  C509.612274,744.107056 508.952881,743.334351 508.185394,742.708496  C500.564850,736.494568 492.917419,730.313660 485.286285,724.112671  C484.527954,723.496399 483.336487,722.912292 483.174011,722.139282  C480.941589,711.516724 470.652679,708.088989 464.435303,701.051025  C461.057465,697.227356 457.310455,693.722473 453.643555,690.162842  C444.304962,681.097534 434.800079,672.199646 425.610229,662.986938  C422.129028,659.497131 419.327881,655.328674 416.219482,651.467346  C415.288391,650.310669 414.477814,649.031860 413.420868,648.005981  C409.307098,644.013245 405.116486,640.099670 400.644287,636.074524  C400.202515,630.967346 400.070923,625.942261 400.380127,620.467896  C404.818390,623.117126 409.103577,625.912354 412.753937,629.376526  C420.557495,636.782043 427.970062,644.597534 435.657562,652.127991  C445.740173,662.004578 455.939362,671.761963 466.077576,681.581787  C477.138000,692.294800 488.019531,703.202454 499.367676,713.601135  C501.905701,715.926819 506.061249,716.487305 509.472076,717.860535  C515.655396,723.650818 521.838745,729.441040 527.841064,735.684326  C526.864441,737.872070 524.986694,740.096191 525.502930,741.237610  C526.514893,743.475281 528.577332,745.575623 530.723267,746.880493  C533.683533,748.680481 539.220215,748.983154 539.960815,751.174805  C542.096985,757.496643 545.735474,761.764099 551.313110,764.863342  C552.007812,765.249329 552.867554,765.957336 552.999512,766.641724  C554.345093,773.620911 559.695984,777.839294 563.906433,782.870361  C571.089722,791.453674 578.106995,800.175964 585.298889,808.751953  C587.948242,811.911316 590.702148,815.032837 593.743591,817.803589  C600.749023,824.185364 608.011963,830.284302 615.040405,836.641602  C616.328003,837.806335 617.001282,839.650269 617.958069,841.180725  C614.587830,841.126526 611.217529,841.072327 607.326172,840.790222  C606.491150,840.363464 606.229736,840.433411 606.020630,840.772156  C605.553162,840.802917 605.085693,840.833679 604.277954,840.770020  z"/>
  <path fill="#FB7930" d="M472.839722,596.006653  C472.825500,609.706604 472.811249,623.406494 472.438477,637.356567  C469.366669,636.547913 466.103607,636.118469 464.040070,634.315918  C456.963593,628.134277 450.327759,621.449890 443.484711,614.998840  C438.434601,610.237976 433.613556,605.168396 428.153503,600.927612  C423.195984,597.077209 418.238495,593.604309 414.391571,588.338989  C412.154388,585.276978 407.437866,584.026428 403.836975,581.960754  C407.433533,568.162231 411.030121,554.363647 415.218597,540.293335  C419.107941,542.415405 422.656342,544.533203 425.652893,547.257996  C432.820648,553.775757 439.737610,560.569885 446.729401,567.279968  C447.557068,568.074280 448.224243,569.036621 448.959381,569.926392  C455.856995,578.275024 462.718964,586.653809 469.709625,594.923767  C470.322418,595.648682 471.776459,595.662537 472.839722,596.006653  z"/>
  <path fill="#FB7930" d="M596.992737,767.027283  C602.934204,767.504211 608.869019,768.235474 614.818909,768.391174  C621.610901,768.568909 628.416260,768.234253 635.647278,768.609375  C636.490234,773.833862 639.978271,774.383362 643.710083,775.079407  C646.640381,775.626099 649.589661,776.617798 652.234863,777.984192  C654.630432,779.221619 656.404175,781.760376 658.846497,782.788391  C663.287292,784.657837 666.031311,787.813599 668.011047,791.982788  C671.648376,799.642639 678.264526,803.218811 686.148804,804.994263  C685.740173,816.388672 680.876953,825.202026 671.110718,831.274475  C669.498291,832.277039 668.194885,833.776733 666.333618,834.742432  C658.120239,828.390625 650.254089,822.427612 642.545776,816.267212  C636.864197,811.726562 631.195557,807.135803 625.872192,802.189514  C619.742737,796.494263 614.152893,790.219360 608.042053,784.502502  C602.788086,779.587280 597.370117,774.950623 596.992737,767.027283  z"/>
  <path fill="#D30BEC" d="M596.132263,611.989746  C597.865662,607.078369 599.598999,602.166931 601.777710,597.360596  C604.367065,599.259399 606.537415,601.022888 608.649658,602.853333  C612.649231,606.319519 616.923767,609.534119 620.533997,613.370850  C629.054749,622.426147 637.196350,631.837036 645.610413,640.994629  C648.725525,644.385010 652.007874,647.663635 655.506287,650.650879  C662.169556,656.340576 669.230713,661.573181 675.771790,667.394409  C681.324280,672.335754 686.335083,677.881775 691.672424,683.070862  C693.672180,685.015076 696.128418,686.511841 698.010864,688.550293  C703.634949,694.640869 708.844727,701.126831 714.638489,707.045105  C728.168762,720.866211 742.002686,734.389587 755.600586,748.145264  C763.310669,755.944763 770.725830,764.035217 778.404236,771.866760  C786.847534,780.478333 795.278870,789.113159 804.014648,797.423279  C812.506836,805.501587 821.377991,813.181458 830.082642,821.036255  C827.276611,823.190613 824.470520,825.344910 821.338013,827.187012  C820.177185,824.835022 819.876160,822.221985 818.411804,820.859009  C813.267822,816.071289 807.431519,812.015625 802.386047,807.136108  C786.884644,792.144348 771.586792,776.940857 756.302551,761.726501  C751.987549,757.431274 747.967773,752.837341 743.856995,748.339844  C741.398071,745.649597 739.179626,742.723206 736.583252,740.178162  C730.242065,733.962463 723.698486,727.953491 717.328125,721.766846  C714.145508,718.676086 711.168518,715.373962 708.090454,712.175171  C703.772339,707.687805 699.540283,703.112427 695.101074,698.747925  C689.168640,692.915344 683.074463,687.247131 677.046875,681.511414  C670.266785,675.059570 663.410706,668.685547 656.718628,662.143738  C646.633179,652.284729 636.712708,642.256775 626.622864,632.402283  C620.004761,625.938599 613.404907,619.429199 606.398926,613.403015  C603.693115,611.075684 599.997803,609.147705 596.132263,611.989746  z"/>
  <path fill="#2A07FA" d="M768.936035,584.799561  C770.620728,577.351990 772.205933,569.948975 768.154724,562.649902  C767.048401,560.656616 766.570312,558.314514 765.975098,555.485352  C767.060974,555.158447 768.225647,555.226746 768.846802,555.842896  C771.407471,558.383118 773.325073,562.050659 776.349060,563.555176  C785.496643,568.106323 789.677795,577.459839 797.055664,583.621887  C805.913940,591.020386 814.750000,598.446167 823.657898,605.784607  C827.594971,609.027954 832.085266,611.697266 835.605286,615.324951  C840.104553,619.961853 844.896545,621.993652 851.152527,619.984192  C849.976746,633.118958 848.800964,646.253784 847.023560,659.731873  C843.497437,662.327637 840.550659,662.330811 838.070984,659.593201  C835.467041,656.718445 833.162781,653.569275 830.772949,650.504517  C828.869324,648.063293 827.179749,645.439209 825.128357,643.133484  C822.977661,640.716187 820.321411,638.742188 818.221680,636.287415  C814.700500,632.170837 811.470154,627.806702 808.069580,623.585205  C805.791138,620.756836 803.457336,617.971802 801.100098,615.208496  C795.887207,609.097351 790.961975,602.688843 785.257202,597.074524  C782.955566,594.809265 779.015015,593.915833 775.650024,593.103271  C771.934143,592.205933 767.968750,592.203552 766.852234,587.452515  C766.968018,587.012512 767.083801,586.572449 767.695374,585.928345  C768.439392,585.416016 768.687744,585.107788 768.936035,584.799561  z"/>
  <path fill="#2B09DD" d="M748.501099,524.977722  C740.165527,516.150574 731.830017,507.323364 723.106323,498.038391  C722.386780,497.414551 722.055359,497.248444 721.723999,497.082367  C721.425720,497.071869 721.191345,496.944153 720.991333,496.098267  C720.220154,493.753296 719.936829,491.498688 718.659119,490.352020  C712.559570,484.877960 706.065979,479.842560 699.974670,474.359863  C697.351257,471.998596 695.317200,468.968109 693.102478,466.172638  C691.776245,464.498718 690.877014,462.409882 689.337402,460.995636  C684.240051,456.313232 679.043335,451.829010 676.425781,445.075745  C675.687500,443.171143 674.020020,441.495514 672.459961,440.061768  C661.746643,430.216064 650.965149,420.444275 640.166626,410.691864  C637.341553,408.140472 634.678894,405.195984 631.410095,403.398529  C626.300171,400.588593 623.355408,396.794281 623.325195,390.994202  C624.431030,390.717468 625.211670,390.441772 625.992310,390.166077  C628.081970,390.360840 630.171692,390.555573 632.637817,391.222412  C633.492065,396.432343 636.110901,399.568695 640.262939,401.685699  C641.566650,402.350433 642.743958,403.344910 643.822937,404.355255  C650.055298,410.191010 656.253967,416.063110 662.432739,421.955627  C663.875427,423.331482 665.162964,424.868744 666.582153,426.270721  C669.273376,428.929108 672.012695,431.538757 674.723267,434.177612  C676.360413,435.771393 678.101135,437.278564 679.588074,439.003387  C685.509766,445.872650 691.382202,452.785095 697.204407,459.738892  C699.531982,462.518738 701.558289,465.555695 703.945618,468.279327  C706.761169,471.491425 709.780762,474.529083 712.785461,477.569580  C714.964233,479.774231 717.259094,481.864258 719.508850,483.998505  C721.703247,486.080292 724.005859,488.059784 726.069519,490.263489  C727.411133,491.696320 728.059021,494.107025 729.624756,494.943787  C735.673218,498.176392 740.574951,502.025208 744.946960,507.769226  C750.165833,514.625732 758.169983,519.307739 764.674133,525.252747  C775.690552,535.322144 786.221313,545.935364 797.445923,555.760498  C805.510681,562.819702 814.387695,568.948853 822.869019,575.535767  C825.088806,577.259705 827.807190,578.755005 829.223633,581.024902  C834.080994,588.808716 842.080200,589.832397 849.879761,591.486450  C850.295776,596.352295 850.711792,601.218201 850.654480,606.541443  C848.190186,606.126282 846.099731,605.424866 844.232727,604.339111  C841.726196,602.881409 839.488159,600.953979 836.956055,599.550903  C834.681396,598.290649 831.875793,597.864563 829.815857,596.366943  C825.557373,593.270996 822.085388,588.826538 817.496948,586.501526  C804.084106,579.705078 796.393677,566.635803 784.791260,557.791809  C775.869934,550.991455 768.857300,541.686951 760.995911,533.496033  C759.846069,532.297974 758.351196,531.280334 757.612671,529.867310  C755.629883,526.073669 752.303162,525.173523 748.501099,524.977722  z"/>
  <path fill="#7705FC" d="M682.002563,584.983704  C689.879822,587.007690 697.757141,589.031677 705.842468,591.740417  C706.504822,598.674072 710.268127,602.593079 715.295837,605.665894  C718.810730,607.813965 722.685852,609.599915 725.670837,612.341614  C732.458496,618.576050 739.166077,624.975952 745.233459,631.898193  C755.026917,643.071533 764.472107,654.566162 773.706299,666.209106  C783.567688,678.642944 792.618408,691.736572 802.789612,703.901245  C808.880249,711.185425 815.330444,718.609680 824.827820,722.013184  C822.866211,725.588074 820.904602,729.162964 818.288208,732.901855  C815.428711,731.257996 813.358826,729.247498 810.997314,727.674866  C795.362244,717.263611 785.181396,701.649841 773.686218,687.499634  C765.501221,677.424377 757.503662,667.292908 748.546326,657.855835  C740.928894,649.830383 734.314270,640.862732 726.967041,632.567810  C721.617981,626.528809 715.798157,620.906677 710.188171,615.098755  C706.864746,611.658020 703.625854,608.130310 700.194763,604.800537  C696.553223,601.266479 692.866516,597.752502 688.941406,594.545654  C685.824280,591.999023 682.317932,589.928772 678.614929,587.394165  C680.208374,586.260315 681.105469,585.622009 682.002563,584.983704  z"/>
  <path fill="#DF1BC2" d="M812.049683,830.146545  C807.953918,830.169250 803.858215,830.191895 799.382202,829.645813  C797.965576,826.850525 797.265076,824.364136 795.799011,822.470276  C794.314636,820.552673 791.914185,819.375854 790.191711,817.605286  C783.737244,810.970520 777.491333,804.131531 770.991028,797.542969  C759.798401,786.198242 748.409424,775.047119 737.220581,763.698730  C723.019287,749.294922 708.937622,734.773010 694.794067,720.312134  C694.099243,719.601746 693.283386,719.011414 692.561279,718.325806  C684.675659,710.838623 676.726624,703.416321 668.940125,695.827332  C662.749329,689.793701 656.859131,683.451111 650.654663,677.432129  C643.564392,670.553833 636.211487,663.946838 629.087341,657.102661  C621.189087,649.514832 613.547729,641.653137 605.474426,634.260193  C604.072937,632.976807 601.085022,633.425964 598.829834,633.074890  C597.914917,629.968140 596.999939,626.861328 596.364624,623.138428  C597.372314,621.137512 598.100403,619.752808 598.790894,618.439636  C600.430420,619.626526 601.800781,620.513489 603.053467,621.543518  C608.757141,626.233093 614.756042,630.626770 620.022095,635.768616  C625.821716,641.431458 630.642700,648.093994 636.419556,653.783264  C645.051636,662.284302 654.302307,670.154541 663.005676,678.586426  C673.972900,689.211487 684.623230,700.162903 695.466309,710.916992  C709.247742,724.585327 723.188904,738.094116 736.857361,751.873901  C744.336853,759.414246 751.210510,767.555603 758.692566,775.093201  C767.791626,784.259766 777.173401,793.150391 786.569458,802.015625  C792.198669,807.326904 798.432922,812.035828 803.737732,817.638062  C807.129211,821.219666 809.320374,825.937927 812.049683,830.146545  z"/>
  <path fill="#DF23A5" d="M598.858643,633.437500  C601.085022,633.425964 604.072937,632.976807 605.474426,634.260193  C613.547729,641.653137 621.189087,649.514832 629.087341,657.102661  C636.211487,663.946838 643.564392,670.553833 650.654663,677.432129  C656.859131,683.451111 662.749329,689.793701 668.940125,695.827332  C676.726624,703.416321 684.675659,710.838623 692.561279,718.325806  C693.283386,719.011414 694.099243,719.601746 694.794067,720.312134  C708.937622,734.773010 723.019287,749.294922 737.220581,763.698730  C748.409424,775.047119 759.798401,786.198242 770.991028,797.542969  C777.491333,804.131531 783.737244,810.970520 790.191711,817.605286  C791.914185,819.375854 794.314636,820.552673 795.799011,822.470276  C797.265076,824.364136 797.965576,826.850525 799.002563,829.479065  C792.753662,829.310608 787.647705,826.453979 783.270264,822.084595  C748.830750,787.709106 714.395142,753.329773 679.933838,718.976196  C656.094971,695.211914 632.114807,671.587952 608.459106,647.643066  C604.576233,643.712708 602.043945,638.448059 598.858643,633.437500  z"/>
  <path fill="#DB13DA" d="M812.445557,830.171509  C809.320374,825.937927 807.129211,821.219666 803.737732,817.638062  C798.432922,812.035828 792.198669,807.326904 786.569458,802.015625  C777.173401,793.150391 767.791626,784.259766 758.692566,775.093201  C751.210510,767.555603 744.336853,759.414246 736.857361,751.873901  C723.188904,738.094116 709.247742,724.585327 695.466309,710.916992  C684.623230,700.162903 673.972900,689.211487 663.005676,678.586426  C654.302307,670.154541 645.051636,662.284302 636.419556,653.783264  C630.642700,648.093994 625.821716,641.431458 620.022095,635.768616  C614.756042,630.626770 608.757141,626.233093 603.053467,621.543518  C601.800781,620.513489 600.430420,619.626526 598.790894,618.439636  C598.100403,619.752808 597.372314,621.137512 596.403442,622.750977  C596.102112,619.618713 596.041504,616.257629 596.056641,612.443176  C599.997803,609.147705 603.693115,611.075684 606.398926,613.403015  C613.404907,619.429199 620.004761,625.938599 626.622864,632.402283  C636.712708,642.256775 646.633179,652.284729 656.718628,662.143738  C663.410706,668.685547 670.266785,675.059570 677.046875,681.511414  C683.074463,687.247131 689.168640,692.915344 695.101074,698.747925  C699.540283,703.112427 703.772339,707.687805 708.090454,712.175171  C711.168518,715.373962 714.145508,718.676086 717.328125,721.766846  C723.698486,727.953491 730.242065,733.962463 736.583252,740.178162  C739.179626,742.723206 741.398071,745.649597 743.856995,748.339844  C747.967773,752.837341 751.987549,757.431274 756.302551,761.726501  C771.586792,776.940857 786.884644,792.144348 802.386047,807.136108  C807.431519,812.015625 813.267822,816.071289 818.411804,820.859009  C819.876160,822.221985 820.177185,824.835022 821.016357,827.253662  C818.294495,828.487244 815.567932,829.341797 812.445557,830.171509  z"/>
  <path fill="#CC06F9" d="M830.389404,820.921631  C821.377991,813.181458 812.506836,805.501587 804.014648,797.423279  C795.278870,789.113159 786.847534,780.478333 778.404236,771.866760  C770.725830,764.035217 763.310669,755.944763 755.600586,748.145264  C742.002686,734.389587 728.168762,720.866211 714.638489,707.045105  C708.844727,701.126831 703.634949,694.640869 698.010864,688.550293  C696.128418,686.511841 693.672180,685.015076 691.672424,683.070862  C686.335083,677.881775 681.324280,672.335754 675.771790,667.394409  C669.230713,661.573181 662.169556,656.340576 655.506287,650.650879  C652.007874,647.663635 648.725525,644.385010 645.610413,640.994629  C637.196350,631.837036 629.054749,622.426147 620.533997,613.370850  C616.923767,609.534119 612.649231,606.319519 608.649658,602.853333  C606.537415,601.022888 604.367065,599.259399 602.067261,597.154907  C602.102051,596.324768 602.292664,595.805420 603.109619,595.146729  C608.922974,596.653137 614.138184,598.216614 619.282654,599.985840  C621.301636,600.680298 623.645813,601.385010 625.015198,602.855042  C633.041687,611.471436 640.831604,620.308472 648.684937,629.085693  C653.880249,634.892212 658.843567,640.924133 664.295837,646.477051  C668.345764,650.601685 673.105347,654.019348 677.384949,657.931152  C683.364197,663.396545 689.233093,668.984863 695.069214,674.603760  C699.687134,679.049866 704.328918,683.486450 708.700378,688.169678  C714.699829,694.596924 720.371155,701.329590 726.335083,707.791016  C732.813538,714.809998 739.540710,721.599243 746.025391,728.612610  C755.138367,738.468384 764.062988,748.498718 773.205627,758.326538  C776.361816,761.719238 780.102600,764.567322 783.268250,767.952271  C788.022522,773.036072 792.201233,778.685059 797.168701,783.536804  C806.671936,792.818542 816.466980,801.809631 826.349182,810.689453  C828.826355,812.915466 832.094421,814.261353 834.998962,816.011719  C833.564697,817.610168 832.130432,819.208557 830.389404,820.921631  z"/>
  <path fill="#2A07FA" d="M686.957214,475.027222  C676.958557,471.859741 666.964294,468.678314 656.955017,465.544769  C655.863831,465.203156 654.686157,465.137695 653.151001,464.385315  C651.591309,456.915222 646.436340,452.958527 641.139893,449.759155  C634.314575,445.636230 627.424316,441.924957 622.590698,435.226990  C620.306580,432.061859 617.621338,428.740784 614.337341,426.836365  C607.747437,423.014954 602.222900,418.281891 597.696411,412.231232  C596.528015,410.669373 595.331116,408.753296 593.687378,407.988983  C587.245178,404.993469 580.815369,402.181305 579.027771,394.279053  C589.718994,392.829498 600.410217,391.379974 611.561401,390.392487  C612.473450,397.220093 615.751343,401.957367 620.459045,406.003754  C626.612610,411.292908 632.668823,416.697845 638.683044,422.145660  C643.808777,426.788574 648.703674,431.690979 653.910889,436.237793  C658.086243,439.883667 662.615601,443.121521 666.894775,446.653290  C667.742249,447.352783 668.166992,448.565094 668.784912,449.542023  C671.501770,453.837006 673.832764,458.455597 677.070129,462.313782  C679.218811,464.874481 682.681152,466.322632 685.523438,468.314545  C688.053955,470.087891 688.984192,472.255035 686.957214,475.027222  z"/>
  <path fill="#2E0D83" d="M686.017334,397.937836  C696.576904,401.726929 707.136475,405.516022 717.817993,409.976990  C718.495117,413.402618 718.328613,416.638672 719.772156,418.798828  C722.020386,422.163361 725.232544,424.939270 728.269836,427.708496  C733.207581,432.210449 738.387451,436.445801 743.365723,440.904602  C748.249207,445.278503 752.961731,449.842926 757.833862,454.229828  C764.801880,460.503815 771.705383,466.861877 778.900696,472.867493  C785.481995,478.360748 792.755371,483.058167 799.085754,488.808624  C804.295776,493.541290 809.626892,496.768921 816.830322,496.041351  C823.233765,509.106476 829.637207,522.171570 835.611450,535.612183  C833.330933,534.777649 830.550293,533.974670 829.807617,532.279114  C827.810303,527.718933 824.050049,525.992615 820.080811,523.839661  C817.104248,522.225159 814.894043,519.184326 812.374512,516.745605  C810.974609,515.390564 809.742432,513.846619 808.258972,512.596191  C799.948486,505.591431 790.988892,499.222229 783.506348,491.430359  C780.097412,487.880554 776.767883,484.962341 772.566772,482.655518  C770.874207,481.726135 769.598328,480.026581 768.158325,478.650848  C765.995483,476.584595 764.066895,474.202576 761.669128,472.464752  C750.005798,464.011383 739.370605,454.536713 730.858643,442.815765  C730.010254,441.647491 728.603027,440.899811 727.655212,439.786591  C720.695740,431.612701 710.698059,426.666534 704.619202,417.393158  C702.174805,413.664307 697.786072,410.969330 693.831299,408.536865  C689.635193,405.955872 685.000061,404.172729 686.017334,397.937836  z"/>
  <path fill="#8B05FC" d="M681.694824,584.764648  C681.105469,585.622009 680.208374,586.260315 678.614929,587.394165  C682.317932,589.928772 685.824280,591.999023 688.941406,594.545654  C692.866516,597.752502 696.553223,601.266479 700.194763,604.800537  C703.625854,608.130310 706.864746,611.658020 710.188171,615.098755  C715.798157,620.906677 721.617981,626.528809 726.967041,632.567810  C734.314270,640.862732 740.928894,649.830383 748.546326,657.855835  C757.503662,667.292908 765.501221,677.424377 773.686218,687.499634  C785.181396,701.649841 795.362244,717.263611 810.997314,727.674866  C813.358826,729.247498 815.428711,731.257996 818.031250,733.108765  C816.856323,735.728577 815.283813,738.305603 813.268799,740.761963  C811.172852,740.486511 809.519287,740.331787 808.144897,740.203247  C804.705566,737.223145 801.227112,734.203674 797.742310,731.191589  C795.233337,729.022888 792.533813,727.040588 790.233276,724.670471  C779.162537,713.265381 771.752136,698.847473 759.443237,688.316711  C752.588318,682.452148 747.257019,674.785156 741.363098,667.825378  C736.228699,661.762573 731.328186,655.502136 726.218384,649.418030  C715.991638,637.240906 706.130859,624.714661 695.282288,613.115112  C686.858459,604.108154 677.075195,596.382996 668.111633,587.861511  C666.349792,586.186584 663.015015,584.581421 665.012268,580.951904  C670.470520,582.149841 675.928772,583.347717 681.694824,584.764648  z"/>
  <path fill="#2D0C99" d="M685.646973,397.889893  C685.000061,404.172729 689.635193,405.955872 693.831299,408.536865  C697.786072,410.969330 702.174805,413.664307 704.619202,417.393158  C710.698059,426.666534 720.695740,431.612701 727.655212,439.786591  C728.603027,440.899811 730.010254,441.647491 730.858643,442.815765  C739.370605,454.536713 750.005798,464.011383 761.669128,472.464752  C764.066895,474.202576 765.995483,476.584595 768.158325,478.650848  C769.598328,480.026581 770.874207,481.726135 772.566772,482.655518  C776.767883,484.962341 780.097412,487.880554 783.506348,491.430359  C790.988892,499.222229 799.948486,505.591431 808.258972,512.596191  C809.742432,513.846619 810.974609,515.390564 812.374512,516.745605  C814.894043,519.184326 817.104248,522.225159 820.080811,523.839661  C824.050049,525.992615 827.810303,527.718933 829.807617,532.279114  C830.550293,533.974670 833.330933,534.777649 835.548218,535.999390  C837.986145,542.048157 840.058167,548.085388 841.751099,554.547302  C840.087708,554.320129 838.626831,553.880554 837.547302,552.982605  C828.938049,545.821777 820.252319,538.741516 811.881897,531.308044  C802.644714,523.104797 793.702759,514.568359 784.673279,506.133118  C783.595337,505.126068 782.856750,503.762451 781.815063,502.708252  C780.432556,501.309174 778.904114,500.054596 777.442993,498.732910  C775.257874,496.756348 773.069580,494.783356 770.895813,492.794373  C767.856384,490.013336 764.909363,487.124786 761.775330,484.455322  C758.197327,481.407684 754.445190,478.565308 750.793640,475.603058  C749.137695,474.259705 747.493774,472.894379 745.926941,471.449554  C738.960999,465.026337 732.022766,458.573090 725.088074,452.116150  C724.859253,451.903046 724.830627,451.485138 724.616943,451.244049  C722.767761,449.157898 720.910583,447.078491 719.031189,445.019592  C712.387085,437.740906 705.732788,430.471497 699.083191,423.197815  C697.634583,421.613220 696.352417,419.828400 694.714111,418.473785  C688.258423,413.135956 680.336792,409.534271 675.740417,401.967712  C675.019714,400.781342 672.637451,400.715668 671.552185,399.611969  C670.113037,398.148438 669.193909,396.173553 668.051392,394.418396  C673.793091,395.559570 679.534851,396.700745 685.646973,397.889893  z"/>
  <path fill="#C404FD" d="M835.093140,815.847778  C832.094421,814.261353 828.826355,812.915466 826.349182,810.689453  C816.466980,801.809631 806.671936,792.818542 797.168701,783.536804  C792.201233,778.685059 788.022522,773.036072 783.268250,767.952271  C780.102600,764.567322 776.361816,761.719238 773.205627,758.326538  C764.062988,748.498718 755.138367,738.468384 746.025391,728.612610  C739.540710,721.599243 732.813538,714.809998 726.335083,707.791016  C720.371155,701.329590 714.699829,694.596924 708.700378,688.169678  C704.328918,683.486450 699.687134,679.049866 695.069214,674.603760  C689.233093,668.984863 683.364197,663.396545 677.384949,657.931152  C673.105347,654.019348 668.345764,650.601685 664.295837,646.477051  C658.843567,640.924133 653.880249,634.892212 648.684937,629.085693  C640.831604,620.308472 633.041687,611.471436 625.015198,602.855042  C623.645813,601.385010 621.301636,600.680298 619.282654,599.985840  C614.138184,598.216614 608.922974,596.653137 603.348389,594.995361  C605.860535,592.185242 608.760376,589.387207 612.213562,586.301880  C613.904846,586.600525 615.146362,587.046753 616.160645,587.799316  C618.895386,589.828430 621.520935,592.003967 624.213806,594.090515  C626.039368,595.505127 628.120361,596.657715 629.715637,598.290405  C636.186279,604.912903 642.107300,612.135559 649.021851,618.241272  C654.544983,623.118347 660.247070,627.520813 662.897278,634.699585  C663.118896,635.299866 663.556274,635.872986 664.024536,636.321899  C671.042786,643.050293 678.037781,649.804138 685.130127,656.453857  C693.329956,664.142029 701.770020,671.580383 709.806519,679.433472  C713.697693,683.235840 716.775452,687.855896 720.452332,691.895691  C726.122864,698.125977 732.068970,704.105164 737.761292,710.316223  C751.296021,725.084229 764.702271,739.970337 778.280579,754.697937  C780.815247,757.447266 784.476562,759.263489 786.651917,762.220886  C798.630737,778.505981 814.183655,791.235352 828.667969,805.021118  C831.444336,807.663635 834.802856,809.694519 837.892700,812.007568  C837.235291,812.590027 836.577881,813.172546 835.551636,814.014771  C835.162476,814.620117 835.142212,814.965698 835.121948,815.311279  C835.121948,815.311279 835.187378,815.683777 835.093140,815.847778  z"/>
  <path fill="#B305FD" d="M842.040405,799.080505  C841.302551,802.253845 840.564636,805.427185 839.252686,808.829041  C838.452454,809.040344 838.226257,809.023132 837.700439,808.851807  C831.432007,802.463806 825.561768,796.131409 819.462646,790.027649  C814.773560,785.334900 809.568359,781.146912 805.002319,776.344910  C798.522156,769.529602 792.503113,762.278320 786.127808,755.360046  C780.659546,749.425903 774.995361,743.670959 769.364075,737.889099  C766.169922,734.609558 762.605286,731.655884 759.671936,728.165100  C754.472839,721.978027 749.854553,715.298218 744.585327,709.175659  C734.697693,697.686768 724.631531,686.345642 714.414001,675.148987  C709.375000,669.627136 703.943237,664.447021 698.494507,659.319214  C688.114075,649.550110 677.992676,639.619324 670.129272,627.556946  C667.370544,623.324890 664.148621,618.448120 659.906921,616.319641  C650.006042,611.351318 644.124817,602.494507 636.505859,595.315674  C631.580994,590.675415 628.241211,583.196655 619.327087,584.673096  C618.694275,584.777954 617.692627,582.656006 616.862488,581.569458  C620.778198,579.928955 624.693909,578.288513 629.259888,576.773865  C630.780334,578.937073 631.163086,581.457581 632.612854,582.920593  C636.809937,587.156311 641.346558,591.073059 645.912903,594.921570  C654.646362,602.282227 663.873413,609.106873 672.146973,616.944397  C676.993225,621.535156 680.135498,627.872070 684.520447,633.017761  C688.587341,637.790466 693.505249,641.831421 697.657959,646.539062  C704.115784,653.859680 710.006836,661.686279 716.563477,668.912415  C727.306641,680.752625 739.502075,691.447815 749.054626,704.152466  C761.382996,720.549011 776.223083,734.514648 789.477966,749.966614  C794.957092,756.354004 800.445068,762.735596 806.032837,769.027649  C816.525635,780.843079 825.726929,794.230469 842.040405,799.080505  z"/>
  <path fill="#FB6D3C" d="M596.753357,766.728394  C597.370117,774.950623 602.788086,779.587280 608.042053,784.502502  C614.152893,790.219360 619.742737,796.494263 625.872192,802.189514  C631.195557,807.135803 636.864197,811.726562 642.545776,816.267212  C650.254089,822.427612 658.120239,828.390625 665.978516,834.789673  C658.471375,839.984680 649.684326,839.516541 641.302734,840.787170  C639.191650,841.107239 637.037476,841.142944 634.416260,840.858276  C630.186890,835.669739 626.458191,830.921326 622.693420,826.201599  C621.568604,824.791321 620.459412,823.335876 619.143555,822.116455  C613.354614,816.750977 606.991150,811.910095 601.775696,806.043640  C594.102722,797.412598 586.947266,788.277588 580.112244,778.960510  C575.278687,772.371582 571.340515,765.125916 567.002563,758.173401  C576.839722,760.925476 586.676819,763.677490 596.753357,766.728394  z"/>
  <path fill="#2C0ACF" d="M849.858032,591.074707  C842.080200,589.832397 834.080994,588.808716 829.223633,581.024902  C827.807190,578.755005 825.088806,577.259705 822.869019,575.535767  C814.387695,568.948853 805.510681,562.819702 797.445923,555.760498  C786.221313,545.935364 775.690552,535.322144 764.674133,525.252747  C758.169983,519.307739 750.165833,514.625732 744.946960,507.769226  C740.574951,502.025208 735.673218,498.176392 729.624756,494.943787  C728.059021,494.107025 727.411133,491.696320 726.069519,490.263489  C724.005859,488.059784 721.703247,486.080292 719.508850,483.998505  C717.259094,481.864258 714.964233,479.774231 712.785461,477.569580  C709.780762,474.529083 706.761169,471.491425 703.945618,468.279327  C701.558289,465.555695 699.531982,462.518738 697.204407,459.738892  C691.382202,452.785095 685.509766,445.872650 679.588074,439.003387  C678.101135,437.278564 676.360413,435.771393 674.723267,434.177612  C672.012695,431.538757 669.273376,428.929108 666.582153,426.270721  C665.162964,424.868744 663.875427,423.331482 662.432739,421.955627  C656.253967,416.063110 650.055298,410.191010 643.822937,404.355255  C642.743958,403.344910 641.566650,402.350433 640.262939,401.685699  C636.110901,399.568695 633.492065,396.432343 633.009216,391.307373  C637.799805,390.747986 642.595459,390.575714 647.512634,390.900513  C643.346619,393.111420 643.098572,396.066101 646.857544,399.272858  C653.813660,405.207062 660.716248,411.204193 667.622437,417.196686  C668.114685,417.623810 668.403137,418.279083 668.872986,418.739929  C672.256531,422.058105 675.672424,425.343262 679.057556,428.659821  C681.162292,430.721924 683.355347,432.712372 685.287476,434.928009  C688.223877,438.295380 690.889099,441.898560 693.809631,445.280609  C700.920166,453.514832 708.111450,461.679382 715.268738,469.873199  C715.377869,469.998047 715.506287,470.124359 715.563293,470.273834  C717.379944,475.038208 721.145020,477.158417 725.462830,479.765930  C732.658630,484.111359 738.885925,490.247955 744.975647,496.189392  C752.305664,503.341003 758.654846,511.521179 766.161560,518.463623  C780.120483,531.373291 794.894470,543.406128 808.755127,556.415527  C815.351257,562.606445 822.329773,567.954224 830.059753,572.509949  C832.022705,573.666809 833.967529,575.209717 835.286499,577.033875  C838.543945,581.538635 842.844299,583.258545 848.195984,582.917358  C848.742798,585.499207 849.289551,588.081055 849.858032,591.074707  z"/>
  <path fill="#2C0AC1" d="M848.149048,582.470459  C842.844299,583.258545 838.543945,581.538635 835.286499,577.033875  C833.967529,575.209717 832.022705,573.666809 830.059753,572.509949  C822.329773,567.954224 815.351257,562.606445 808.755127,556.415527  C794.894470,543.406128 780.120483,531.373291 766.161560,518.463623  C758.654846,511.521179 752.305664,503.341003 744.975647,496.189392  C738.885925,490.247955 732.658630,484.111359 725.462830,479.765930  C721.145020,477.158417 717.379944,475.038208 715.563293,470.273834  C715.506287,470.124359 715.377869,469.998047 715.268738,469.873199  C708.111450,461.679382 700.920166,453.514832 693.809631,445.280609  C690.889099,441.898560 688.223877,438.295380 685.287476,434.928009  C683.355347,432.712372 681.162292,430.721924 679.057556,428.659821  C675.672424,425.343262 672.256531,422.058105 668.872986,418.739929  C668.403137,418.279083 668.114685,417.623810 667.622437,417.196686  C660.716248,411.204193 653.813660,405.207062 646.857544,399.272858  C643.098572,396.066101 643.346619,393.111420 647.874390,391.107117  C650.145874,391.211304 652.177063,391.605988 654.603027,392.465607  C655.269775,394.521088 655.001831,396.581848 655.906860,397.621246  C659.964233,402.280945 664.280212,406.725189 668.648254,411.101990  C672.722046,415.183960 676.977051,419.085236 681.156921,423.061188  C683.761780,425.538971 686.543579,427.856049 688.943604,430.517853  C692.156006,434.080688 694.984253,437.987396 698.146240,441.598694  C701.393677,445.307709 704.873535,448.812134 708.195496,452.457245  C710.375244,454.848969 712.288635,457.504761 714.612915,459.739044  C720.277893,465.184662 726.130493,470.434601 731.873840,475.799408  C737.272522,480.842316 742.542297,486.026428 748.024841,490.975555  C754.530334,496.848083 761.333679,502.394012 767.769592,508.339447  C775.901123,515.851196 783.671021,523.755127 791.820496,531.246643  C800.365723,539.101990 808.898743,547.017822 817.974365,554.231140  C823.369141,558.519043 829.726196,561.635864 835.795715,565.018738  C838.939331,566.770813 842.218018,566.442688 845.065247,563.960083  C846.077515,569.981262 847.089844,576.002441 848.149048,582.470459  z"/>
  <path fill="#4906FC" d="M843.590698,676.130676  C840.947083,684.006775 838.303528,691.882874 835.176392,699.709595  C831.877869,697.486694 829.157776,695.174866 826.229126,693.167175  C818.941467,688.171265 812.320251,682.674988 808.004333,674.650513  C805.048096,669.153992 801.584717,663.870117 797.840332,658.871582  C792.198425,651.339905 786.604797,643.663757 780.080444,636.931030  C773.237549,629.869690 765.127258,624.055542 757.930786,617.312195  C751.376282,611.170410 745.304260,604.513733 739.019531,598.084106  C744.691711,597.546021 750.363892,597.007996 756.471313,596.795959  C757.140320,601.065613 759.356934,603.453796 762.860657,604.960510  C765.746399,606.201599 769.161377,606.994873 771.296875,609.064697  C781.717224,619.164734 791.949585,629.473694 801.887024,640.048340  C805.100159,643.467468 807.026611,648.060425 809.879883,651.862610  C813.095276,656.147156 817.093140,659.881592 820.022705,664.334167  C823.761047,670.016113 827.486694,675.436951 834.827454,676.345520  C837.695740,676.700562 840.666504,676.226929 843.590698,676.130676  z"/>
  <path fill="#BB04FD" d="M616.523010,581.653564  C617.692627,582.656006 618.694275,584.777954 619.327087,584.673096  C628.241211,583.196655 631.580994,590.675415 636.505859,595.315674  C644.124817,602.494507 650.006042,611.351318 659.906921,616.319641  C664.148621,618.448120 667.370544,623.324890 670.129272,627.556946  C677.992676,639.619324 688.114075,649.550110 698.494507,659.319214  C703.943237,664.447021 709.375000,669.627136 714.414001,675.148987  C724.631531,686.345642 734.697693,697.686768 744.585327,709.175659  C749.854553,715.298218 754.472839,721.978027 759.671936,728.165100  C762.605286,731.655884 766.169922,734.609558 769.364075,737.889099  C774.995361,743.670959 780.659546,749.425903 786.127808,755.360046  C792.503113,762.278320 798.522156,769.529602 805.002319,776.344910  C809.568359,781.146912 814.773560,785.334900 819.462646,790.027649  C825.561768,796.131409 831.432007,802.463806 837.710693,809.266174  C838.062805,810.386658 838.104980,810.938721 838.147095,811.490845  C838.147156,811.490845 838.163391,811.819702 838.028076,811.913696  C834.802856,809.694519 831.444336,807.663635 828.667969,805.021118  C814.183655,791.235352 798.630737,778.505981 786.651917,762.220886  C784.476562,759.263489 780.815247,757.447266 778.280579,754.697937  C764.702271,739.970337 751.296021,725.084229 737.761292,710.316223  C732.068970,704.105164 726.122864,698.125977 720.452332,691.895691  C716.775452,687.855896 713.697693,683.235840 709.806519,679.433472  C701.770020,671.580383 693.329956,664.142029 685.130127,656.453857  C678.037781,649.804138 671.042786,643.050293 664.024536,636.321899  C663.556274,635.872986 663.118896,635.299866 662.897278,634.699585  C660.247070,627.520813 654.544983,623.118347 649.021851,618.241272  C642.107300,612.135559 636.186279,604.912903 629.715637,598.290405  C628.120361,596.657715 626.039368,595.505127 624.213806,594.090515  C621.520935,592.003967 618.895386,589.828430 616.160645,587.799316  C615.146362,587.046753 613.904846,586.600525 612.399963,586.009155  C613.416504,584.581726 614.799988,583.159729 616.523010,581.653564  z"/>
  <path fill="#A205FD" d="M642.223572,576.916382  C643.561951,576.855103 644.900330,576.793823 646.436890,577.124634  C643.315918,580.553833 647.148621,581.808960 648.445007,582.712708  C654.647278,587.036743 661.249451,590.784912 667.481140,595.069885  C671.125366,597.575684 674.617615,600.436279 677.695190,603.606201  C685.398682,611.540955 692.825867,619.743774 700.365845,627.837280  C703.276428,630.961548 706.446838,633.884644 709.042725,637.251038  C712.475037,641.702209 715.110901,646.790588 718.708801,651.085999  C726.138367,659.955811 734.006287,668.457275 741.641479,677.156311  C750.258179,686.973328 758.866150,696.798950 767.383789,706.701843  C772.789978,712.987305 777.768250,719.657654 783.393738,725.733887  C792.843262,735.940369 802.746826,745.725464 812.263855,755.871277  C815.423035,759.239014 817.984070,763.168274 820.813293,766.844971  C825.212097,772.561462 829.606262,778.281494 834.042847,784.349182  C835.742737,788.064697 838.269348,790.069092 842.200928,789.866760  C842.200928,789.866760 842.198669,789.911560 841.981140,790.213989  C837.353943,794.195923 833.614563,790.454590 831.258240,788.250183  C824.174072,781.622986 817.831055,774.188416 811.356079,766.928650  C801.207764,755.550415 791.219360,744.029541 781.101685,732.623718  C775.302795,726.086548 769.282593,719.744141 763.545471,713.154297  C758.150879,706.958008 753.101318,700.461487 747.712952,694.259521  C739.897278,685.263611 731.891663,676.433044 724.011108,667.493042  C720.507874,663.518799 717.127991,659.435974 713.664856,655.426147  C706.657837,647.313110 699.637085,639.211914 692.612427,631.114197  C688.629578,626.522949 684.595337,621.975830 680.645020,617.356873  C677.748779,613.970398 675.402161,609.950928 672.022034,607.172913  C663.202820,599.924744 653.914001,593.250610 644.889587,586.248169  C641.588501,583.686707 638.504883,580.844910 634.344971,577.297974  C637.753906,577.132874 639.988770,577.024658 642.223572,576.916382  z"/>
  <path fill="#F96049" d="M509.319305,717.541565  C506.061249,716.487305 501.905701,715.926819 499.367676,713.601135  C488.019531,703.202454 477.138000,692.294800 466.077576,681.581787  C455.939362,671.761963 445.740173,662.004578 435.657562,652.127991  C427.970062,644.597534 420.557495,636.782043 412.753937,629.376526  C409.103577,625.912354 404.818390,623.117126 400.465668,620.007568  C400.225769,615.581482 400.341125,611.166443 401.049042,606.376953  C406.751709,608.162903 412.612305,609.373718 416.809204,612.689880  C424.557953,618.812622 431.407562,626.092346 438.477570,633.046753  C441.867157,636.380981 444.770844,640.207275 448.138031,643.566772  C451.771729,647.192139 456.798981,649.887756 459.262390,654.125854  C465.129883,664.220459 476.072845,668.523987 483.269867,676.925903  C489.589172,687.605530 495.799164,698.352295 502.296814,708.922302  C504.159180,711.951904 506.853638,714.469971 509.319305,717.541565  z"/>
  <path fill="#3E06FB" d="M578.645630,394.268280  C580.815369,402.181305 587.245178,404.993469 593.687378,407.988983  C595.331116,408.753296 596.528015,410.669373 597.696411,412.231232  C602.222900,418.281891 607.747437,423.014954 614.337341,426.836365  C617.621338,428.740784 620.306580,432.061859 622.590698,435.226990  C627.424316,441.924957 634.314575,445.636230 641.139893,449.759155  C646.436340,452.958527 651.591309,456.915222 652.818604,464.223877  C647.184570,463.934143 641.485352,463.247040 635.167358,462.057037  C630.218994,460.133606 625.442688,459.442444 621.661926,457.126221  C615.586121,453.404083 610.021240,448.785889 604.504211,444.227234  C594.078003,435.612122 583.967224,426.612030 573.454102,418.107239  C569.694458,415.065857 565.389832,412.365723 560.897949,410.653168  C556.195862,408.860443 553.427246,406.573029 553.997742,401.319885  C562.086304,398.965759 570.174927,396.611633 578.645630,394.268280  z"/>
  <path fill="#3906FB" d="M843.751587,675.813293  C840.666504,676.226929 837.695740,676.700562 834.827454,676.345520  C827.486694,675.436951 823.761047,670.016113 820.022705,664.334167  C817.093140,659.881592 813.095276,656.147156 809.879883,651.862610  C807.026611,648.060425 805.100159,643.467468 801.887024,640.048340  C791.949585,629.473694 781.717224,619.164734 771.296875,609.064697  C769.161377,606.994873 765.746399,606.201599 762.860657,604.960510  C759.356934,603.453796 757.140320,601.065613 756.869141,596.696045  C759.973999,593.461670 763.116211,590.653137 766.555298,587.648560  C767.968750,592.203552 771.934143,592.205933 775.650024,593.103271  C779.015015,593.915833 782.955566,594.809265 785.257202,597.074524  C790.961975,602.688843 795.887207,609.097351 801.100098,615.208496  C803.457336,617.971802 805.791138,620.756836 808.069580,623.585205  C811.470154,627.806702 814.700500,632.170837 818.221680,636.287415  C820.321411,638.742188 822.977661,640.716187 825.128357,643.133484  C827.179749,645.439209 828.869324,648.063293 830.772949,650.504517  C833.162781,653.569275 835.467041,656.718445 838.070984,659.593201  C840.550659,662.330811 843.497437,662.327637 846.792114,660.041626  C846.078979,665.170654 844.995789,670.333252 843.751587,675.813293  z"/>
  <path fill="#F96049" d="M566.714355,757.954956  C571.340515,765.125916 575.278687,772.371582 580.112244,778.960510  C586.947266,788.277588 594.102722,797.412598 601.775696,806.043640  C606.991150,811.910095 613.354614,816.750977 619.143555,822.116455  C620.459412,823.335876 621.568604,824.791321 622.693420,826.201599  C626.458191,830.921326 630.186890,835.669739 633.968262,840.760986  C628.950745,841.233337 623.894226,841.351990 618.397949,841.325684  C617.001282,839.650269 616.328003,837.806335 615.040405,836.641602  C608.011963,830.284302 600.749023,824.185364 593.743591,817.803589  C590.702148,815.032837 587.948242,811.911316 585.298889,808.751953  C578.106995,800.175964 571.089722,791.453674 563.906433,782.870361  C559.695984,777.839294 554.345093,773.620911 552.999512,766.641724  C552.867554,765.957336 552.007812,765.249329 551.313110,764.863342  C545.735474,761.764099 542.096985,757.496643 539.960815,751.174805  C539.220215,748.983154 533.683533,748.680481 530.723267,746.880493  C528.577332,745.575623 526.514893,743.475281 525.502930,741.237610  C524.986694,740.096191 526.864441,737.872070 528.019287,735.978638  C538.280457,744.578674 549.966980,750.337341 561.867859,755.733887  C563.379211,756.419312 564.906372,757.069885 566.714355,757.954956  z"/>
  <path fill="#6605FC" d="M825.066284,721.746338  C815.330444,718.609680 808.880249,711.185425 802.789612,703.901245  C792.618408,691.736572 783.567688,678.642944 773.706299,666.209106  C764.472107,654.566162 755.026917,643.071533 745.233459,631.898193  C739.166077,624.975952 732.458496,618.576050 725.670837,612.341614  C722.685852,609.599915 718.810730,607.813965 715.295837,605.665894  C710.268127,602.593079 706.504822,598.674072 706.087280,591.998291  C706.124084,591.571289 706.207703,591.612000 706.715759,591.735352  C707.539307,591.884033 707.854736,591.909302 708.170227,591.934448  C712.169189,592.574341 716.168213,593.214233 720.309326,594.233032  C719.368225,595.361816 718.284912,596.111755 717.201660,596.861694  C718.721680,598.263977 720.023743,600.432251 721.798950,600.937256  C729.960571,603.259033 736.061829,608.388000 741.808289,614.262024  C749.337708,621.958679 757.057434,629.468811 764.645508,637.108643  C768.122620,640.609375 771.747131,644.014771 774.820557,647.851440  C778.107910,651.955139 780.633728,656.662476 783.839172,660.839905  C787.850159,666.067261 793.172241,670.509827 796.225525,676.204224  C802.340759,687.609070 809.738098,697.261047 821.705933,702.970703  C825.075806,704.578491 827.985535,707.150818 831.106323,709.280701  C829.172485,713.346924 827.238586,717.413208 825.066284,721.746338  z"/>
  <path fill="#AA05FD" d="M642.076538,576.559937  C639.988770,577.024658 637.753906,577.132874 634.344971,577.297974  C638.504883,580.844910 641.588501,583.686707 644.889587,586.248169  C653.914001,593.250610 663.202820,599.924744 672.022034,607.172913  C675.402161,609.950928 677.748779,613.970398 680.645020,617.356873  C684.595337,621.975830 688.629578,626.522949 692.612427,631.114197  C699.637085,639.211914 706.657837,647.313110 713.664856,655.426147  C717.127991,659.435974 720.507874,663.518799 724.011108,667.493042  C731.891663,676.433044 739.897278,685.263611 747.712952,694.259521  C753.101318,700.461487 758.150879,706.958008 763.545471,713.154297  C769.282593,719.744141 775.302795,726.086548 781.101685,732.623718  C791.219360,744.029541 801.207764,755.550415 811.356079,766.928650  C817.831055,774.188416 824.174072,781.622986 831.258240,788.250183  C833.614563,790.454590 837.353943,794.195923 841.963989,790.200073  C842.274170,792.731018 842.383972,795.578491 842.267090,798.753174  C825.726929,794.230469 816.525635,780.843079 806.032837,769.027649  C800.445068,762.735596 794.957092,756.354004 789.477966,749.966614  C776.223083,734.514648 761.382996,720.549011 749.054626,704.152466  C739.502075,691.447815 727.306641,680.752625 716.563477,668.912415  C710.006836,661.686279 704.115784,653.859680 697.657959,646.539062  C693.505249,641.831421 688.587341,637.790466 684.520447,633.017761  C680.135498,627.872070 676.993225,621.535156 672.146973,616.944397  C663.873413,609.106873 654.646362,602.282227 645.912903,594.921570  C641.346558,591.073059 636.809937,587.156311 632.612854,582.920593  C631.163086,581.457581 630.780334,578.937073 629.619629,576.848267  C633.529175,576.599060 637.729370,576.401306 642.076538,576.559937  z"/>
  <path fill="#FB6D3C" d="M483.231140,676.546509  C476.072845,668.523987 465.129883,664.220459 459.262390,654.125854  C456.798981,649.887756 451.771729,647.192139 448.138031,643.566772  C444.770844,640.207275 441.867157,636.380981 438.477570,633.046753  C431.407562,626.092346 424.557953,618.812622 416.809204,612.689880  C412.612305,609.373718 406.751709,608.162903 401.224915,605.999634  C401.675690,598.201050 402.543213,590.405212 403.623840,582.285034  C407.437866,584.026428 412.154388,585.276978 414.391571,588.338989  C418.238495,593.604309 423.195984,597.077209 428.153503,600.927612  C433.613556,605.168396 438.434601,610.237976 443.484711,614.998840  C450.327759,621.449890 456.963593,628.134277 464.040070,634.315918  C466.103607,636.118469 469.366669,636.547913 472.396667,637.774170  C476.206390,650.683411 479.699402,663.425293 483.231140,676.546509  z"/>
  <path fill="#9905FC" d="M834.002441,784.000000  C829.606262,778.281494 825.212097,772.561462 820.813293,766.844971  C817.984070,763.168274 815.423035,759.239014 812.263855,755.871277  C802.746826,745.725464 792.843262,735.940369 783.393738,725.733887  C777.768250,719.657654 772.789978,712.987305 767.383789,706.701843  C758.866150,696.798950 750.258179,686.973328 741.641479,677.156311  C734.006287,668.457275 726.138367,659.955811 718.708801,651.085999  C715.110901,646.790588 712.475037,641.702209 709.042725,637.251038  C706.446838,633.884644 703.276428,630.961548 700.365845,627.837280  C692.825867,619.743774 685.398682,611.540955 677.695190,603.606201  C674.617615,600.436279 671.125366,597.575684 667.481140,595.069885  C661.249451,590.784912 654.647278,587.036743 648.445007,582.712708  C647.148621,581.808960 643.315918,580.553833 646.818542,577.259766  C651.725464,578.164551 656.440125,579.364563 661.179321,580.458557  C662.231567,580.701416 663.370178,580.570190 664.740662,580.781555  C663.015015,584.581421 666.349792,586.186584 668.111633,587.861511  C677.075195,596.382996 686.858459,604.108154 695.282288,613.115112  C706.130859,624.714661 715.991638,637.240906 726.218384,649.418030  C731.328186,655.502136 736.228699,661.762573 741.363098,667.825378  C747.257019,674.785156 752.588318,682.452148 759.443237,688.316711  C771.752136,698.847473 779.162537,713.265381 790.233276,724.670471  C792.533813,727.040588 795.233337,729.022888 797.742310,731.191589  C801.227112,734.203674 804.705566,737.223145 808.144897,740.203247  C809.519287,740.331787 811.172852,740.486511 812.977173,740.949341  C812.463257,742.389832 811.798645,743.522217 810.721069,744.975525  C810.137085,745.492493 810.032776,745.719238 809.995239,745.976685  C815.350342,751.719727 820.875305,757.315979 826.007324,763.251892  C830.195984,768.096802 836.645996,771.175964 837.767212,778.851318  C837.757812,782.050354 837.737244,784.448425 834.002441,784.000000  z"/>
  <path fill="#2E0F6C" d="M816.729370,495.722900  C809.626892,496.768921 804.295776,493.541290 799.085754,488.808624  C792.755371,483.058167 785.481995,478.360748 778.900696,472.867493  C771.705383,466.861877 764.801880,460.503815 757.833862,454.229828  C752.961731,449.842926 748.249207,445.278503 743.365723,440.904602  C738.387451,436.445801 733.207581,432.210449 728.269836,427.708496  C725.232544,424.939270 722.020386,422.163361 719.772156,418.798828  C718.328613,416.638672 718.495117,413.402618 717.995117,410.275757  C726.700500,414.388885 735.677246,418.347046 743.942444,423.456238  C773.660034,441.826385 797.616699,466.150635 816.729370,495.722900  z"/>
  <path fill="#2D0BA8" d="M667.739990,394.282532  C669.193909,396.173553 670.113037,398.148438 671.552185,399.611969  C672.637451,400.715668 675.019714,400.781342 675.740417,401.967712  C680.336792,409.534271 688.258423,413.135956 694.714111,418.473785  C696.352417,419.828400 697.634583,421.613220 699.083191,423.197815  C705.732788,430.471497 712.387085,437.740906 719.031189,445.019592  C720.910583,447.078491 722.767761,449.157898 724.616943,451.244049  C724.830627,451.485138 724.859253,451.903046 725.088074,452.116150  C732.022766,458.573090 738.960999,465.026337 745.926941,471.449554  C747.493774,472.894379 749.137695,474.259705 750.793640,475.603058  C754.445190,478.565308 758.197327,481.407684 761.775330,484.455322  C764.909363,487.124786 767.856384,490.013336 770.895813,492.794373  C773.069580,494.783356 775.257874,496.756348 777.442993,498.732910  C778.904114,500.054596 780.432556,501.309174 781.815063,502.708252  C782.856750,503.762451 783.595337,505.126068 784.673279,506.133118  C793.702759,514.568359 802.644714,523.104797 811.881897,531.308044  C820.252319,538.741516 828.938049,545.821777 837.547302,552.982605  C838.626831,553.880554 840.087708,554.320129 841.746887,554.964600  C842.750366,557.052246 843.378845,559.147278 843.577271,561.613770  C840.168335,560.581116 836.807190,559.665894 834.276733,557.688049  C823.427551,549.207703 812.810242,540.429932 802.131836,531.731812  C783.920471,516.897583 768.723328,498.789886 750.143494,484.277649  C743.162842,478.825165 734.481445,474.577728 730.866760,465.454102  C730.703796,465.042633 730.127258,464.805328 729.770813,464.458649  C721.995789,456.896423 714.097900,449.454926 706.493774,441.724396  C700.620605,435.753601 693.907654,430.410492 690.551514,422.336548  C690.378052,421.919220 689.883301,421.611237 689.492310,421.312225  C681.627625,415.297516 673.657593,409.414642 665.934875,403.223206  C662.862488,400.760040 659.894592,397.785919 661.991882,393.091064  C663.804138,393.442902 665.616394,393.794769 667.739990,394.282532  z"/>
  <path fill="#5805FC" d="M831.379822,709.031128  C827.985535,707.150818 825.075806,704.578491 821.705933,702.970703  C809.738098,697.261047 802.340759,687.609070 796.225525,676.204224  C793.172241,670.509827 787.850159,666.067261 783.839172,660.839905  C780.633728,656.662476 778.107910,651.955139 774.820557,647.851440  C771.747131,644.014771 768.122620,640.609375 764.645508,637.108643  C757.057434,629.468811 749.337708,621.958679 741.808289,614.262024  C736.061829,608.388000 729.960571,603.259033 721.798950,600.937256  C720.023743,600.432251 718.721680,598.263977 717.201660,596.861694  C718.284912,596.111755 719.368225,595.361816 720.705322,594.376831  C726.734985,595.359863 732.510803,596.577942 738.653076,597.940063  C745.304260,604.513733 751.376282,611.170410 757.930786,617.312195  C765.127258,624.055542 773.237549,629.869690 780.080444,636.931030  C786.604797,643.663757 792.198425,651.339905 797.840332,658.871582  C801.584717,663.870117 805.048096,669.153992 808.004333,674.650513  C812.320251,682.674988 818.941467,688.171265 826.229126,693.167175  C829.157776,695.174866 831.877869,697.486694 834.905029,699.955688  C833.962585,703.094727 832.807983,705.938171 831.379822,709.031128  z"/>
  <path fill="#B305FD" d="M545.968628,484.902466  C540.510376,488.866730 535.052124,492.830994 528.889832,496.899719  C527.524536,496.958466 526.667664,497.166382 526.231079,496.829559  C517.808594,490.332031 507.614990,486.132477 501.347137,476.807068  C498.270996,472.230377 494.719574,467.687714 490.475128,464.251190  C484.696716,459.572632 478.049927,455.966583 471.775513,451.900635  C477.672333,446.681793 483.569122,441.462921 490.029083,436.374023  C492.594543,438.608734 494.359741,441.027985 496.648132,442.753265  C501.518280,446.424988 507.145752,449.214447 511.566803,453.328400  C516.974060,458.359985 521.631042,464.242065 526.305603,470.005280  C531.671387,476.620697 536.591553,483.652649 545.968628,484.902466  z"/>
  <path fill="#2D0BB5" d="M661.638672,392.898132  C659.894592,397.785919 662.862488,400.760040 665.934875,403.223206  C673.657593,409.414642 681.627625,415.297516 689.492310,421.312225  C689.883301,421.611237 690.378052,421.919220 690.551514,422.336548  C693.907654,430.410492 700.620605,435.753601 706.493774,441.724396  C714.097900,449.454926 721.995789,456.896423 729.770813,464.458649  C730.127258,464.805328 730.703796,465.042633 730.866760,465.454102  C734.481445,474.577728 743.162842,478.825165 750.143494,484.277649  C768.723328,498.789886 783.920471,516.897583 802.131836,531.731812  C812.810242,540.429932 823.427551,549.207703 834.276733,557.688049  C836.807190,559.665894 840.168335,560.581116 843.515381,561.997375  C844.232483,562.470886 844.581421,562.932312 844.997803,563.676880  C842.218018,566.442688 838.939331,566.770813 835.795715,565.018738  C829.726196,561.635864 823.369141,558.519043 817.974365,554.231140  C808.898743,547.017822 800.365723,539.101990 791.820496,531.246643  C783.671021,523.755127 775.901123,515.851196 767.769592,508.339447  C761.333679,502.394012 754.530334,496.848083 748.024841,490.975555  C742.542297,486.026428 737.272522,480.842316 731.873840,475.799408  C726.130493,470.434601 720.277893,465.184662 714.612915,459.739044  C712.288635,457.504761 710.375244,454.848969 708.195496,452.457245  C704.873535,448.812134 701.393677,445.307709 698.146240,441.598694  C694.984253,437.987396 692.156006,434.080688 688.943604,430.517853  C686.543579,427.856049 683.761780,425.538971 681.156921,423.061188  C676.977051,419.085236 672.722046,415.183960 668.648254,411.101990  C664.280212,406.725189 659.964233,402.280945 655.906860,397.621246  C655.001831,396.581848 655.269775,394.521088 654.994995,392.529877  C657.090027,392.321228 659.187683,392.513245 661.638672,392.898132  z"/>
  <path fill="#9905FC" d="M546.311157,484.844849  C536.591553,483.652649 531.671387,476.620697 526.305603,470.005280  C521.631042,464.242065 516.974060,458.359985 511.566803,453.328400  C507.145752,449.214447 501.518280,446.424988 496.648132,442.753265  C494.359741,441.027985 492.594543,438.608734 490.356659,436.276245  C497.091217,431.155731 504.061371,426.262939 511.445160,421.721924  C512.745483,425.029633 512.832581,428.673767 514.671326,430.810364  C519.835754,436.811371 525.662781,442.251923 531.350281,447.788452  C533.911987,450.282135 537.623840,451.977600 539.325500,454.901428  C544.971924,464.602997 555.452087,468.564758 562.995789,475.932983  C557.548401,478.884399 552.101074,481.835815 546.311157,484.844849  z"/>
  <path fill="#5206FC" d="M553.646362,401.362244  C553.427246,406.573029 556.195862,408.860443 560.897949,410.653168  C565.389832,412.365723 569.694458,415.065857 573.454102,418.107239  C583.967224,426.612030 594.078003,435.612122 604.504211,444.227234  C610.021240,448.785889 615.586121,453.404083 621.661926,457.126221  C625.442688,459.442444 630.218994,460.133606 634.811523,461.858582  C623.713379,462.845917 612.352173,463.528809 600.353882,463.944641  C598.349121,462.564911 596.919006,461.519989 595.625916,460.326538  C592.128662,457.098907 588.742126,453.750214 585.216309,450.554749  C578.330688,444.314240 570.833801,438.639587 564.633789,431.786316  C559.905701,426.560150 555.464294,421.601044 548.800171,418.784058  C543.489014,416.538879 540.442139,412.331177 540.990417,406.177734  C545.091919,404.586670 549.193420,402.995605 553.646362,401.362244  z"/>
  <path fill="#7705FC" d="M563.354736,475.898560  C555.452087,468.564758 544.971924,464.602997 539.325500,454.901428  C537.623840,451.977600 533.911987,450.282135 531.350281,447.788452  C525.662781,442.251923 519.835754,436.811371 514.671326,430.810364  C512.832581,428.673767 512.745483,425.029633 511.802063,421.612488  C516.203979,418.589203 520.662598,416.027100 525.517334,413.802856  C527.447327,416.857697 528.462952,420.109650 530.611938,422.191986  C537.181335,428.557709 544.262085,434.391754 550.994568,440.594635  C555.175903,444.447052 559.088318,448.591431 563.117920,452.608276  C567.479492,456.955963 571.764648,461.384796 576.251221,465.599274  C577.271851,466.557983 578.955200,466.873688 580.386292,467.313354  C581.550110,467.670837 582.793030,467.771027 584.000854,467.985291  C577.238464,470.611572 570.476074,473.237854 563.354736,475.898560  z"/>
  <path fill="#2B08EC" d="M748.589844,525.338684  C752.303162,525.173523 755.629883,526.073669 757.612671,529.867310  C758.351196,531.280334 759.846069,532.297974 760.995911,533.496033  C768.857300,541.686951 775.869934,550.991455 784.791260,557.791809  C796.393677,566.635803 804.084106,579.705078 817.496948,586.501526  C822.085388,588.826538 825.557373,593.270996 829.815857,596.366943  C831.875793,597.864563 834.681396,598.290649 836.956055,599.550903  C839.488159,600.953979 841.726196,602.881409 844.232727,604.339111  C846.099731,605.424866 848.190186,606.126282 850.581787,607.000244  C851.109192,611.027527 851.236023,615.053467 851.257690,619.531799  C844.896545,621.993652 840.104553,619.961853 835.605286,615.324951  C832.085266,611.697266 827.594971,609.027954 823.657898,605.784607  C814.750000,598.446167 805.913940,591.020386 797.055664,583.621887  C789.677795,577.459839 785.496643,568.106323 776.349060,563.555176  C773.325073,562.050659 771.407471,558.383118 768.846802,555.842896  C768.225647,555.226746 767.060974,555.158447 765.955322,555.123291  C760.069092,545.505432 754.373779,535.602539 748.589844,525.338684  z"/>
  <path fill="#6605FC" d="M584.395264,468.014709  C582.793030,467.771027 581.550110,467.670837 580.386292,467.313354  C578.955200,466.873688 577.271851,466.557983 576.251221,465.599274  C571.764648,461.384796 567.479492,456.955963 563.117920,452.608276  C559.088318,448.591431 555.175903,444.447052 550.994568,440.594635  C544.262085,434.391754 537.181335,428.557709 530.611938,422.191986  C528.462952,420.109650 527.447327,416.857697 525.881775,413.698975  C530.663208,410.919159 535.476196,408.581055 540.639832,406.210327  C540.442139,412.331177 543.489014,416.538879 548.800171,418.784058  C555.464294,421.601044 559.905701,426.560150 564.633789,431.786316  C570.833801,438.639587 578.330688,444.314240 585.216309,450.554749  C588.742126,453.750214 592.128662,457.098907 595.625916,460.326538  C596.919006,461.519989 598.349121,462.564911 599.919922,463.970703  C595.011841,465.523926 589.900757,466.784027 584.395264,468.014709  z"/>
  <path fill="#FB6D3C" d="M472.974060,595.618408  C471.776459,595.662537 470.322418,595.648682 469.709625,594.923767  C462.718964,586.653809 455.856995,578.275024 448.959381,569.926392  C448.224243,569.036621 447.557068,568.074280 446.729401,567.279968  C439.737610,560.569885 432.820648,553.775757 425.652893,547.257996  C422.656342,544.533203 419.107941,542.415405 415.454895,540.010498  C416.958679,535.185120 418.818024,530.370911 421.253815,525.325012  C426.712830,528.386414 432.072113,531.161682 436.355652,535.105408  C441.547424,539.885498 445.704834,545.769409 450.534454,550.966919  C458.753906,559.812500 467.157776,568.486511 475.442780,577.271667  C475.846283,577.699524 475.853943,578.500732 476.045929,579.128052  C475.066742,584.495422 474.087585,589.862793 472.974060,595.618408  z"/>
  <path fill="#2B08EC" d="M687.207336,475.268707  C688.984192,472.255035 688.053955,470.087891 685.523438,468.314545  C682.681152,466.322632 679.218811,464.874481 677.070129,462.313782  C673.832764,458.455597 671.501770,453.837006 668.784912,449.542023  C668.166992,448.565094 667.742249,447.352783 666.894775,446.653290  C662.615601,443.121521 658.086243,439.883667 653.910889,436.237793  C648.703674,431.690979 643.808777,426.788574 638.683044,422.145660  C632.668823,416.697845 626.612610,411.292908 620.459045,406.003754  C615.751343,401.957367 612.473450,397.220093 612.008667,390.460602  C615.359802,390.033203 618.723572,389.999756 622.544556,390.244415  C623.001709,390.522522 623.000000,390.995209 623.000000,390.995209  C623.355408,396.794281 626.300171,400.588593 631.410095,403.398529  C634.678894,405.195984 637.341553,408.140472 640.166626,410.691864  C650.965149,420.444275 661.746643,430.216064 672.459961,440.061768  C674.020020,441.495514 675.687500,443.171143 676.425781,445.075745  C679.043335,451.829010 684.240051,456.313232 689.337402,460.995636  C690.877014,462.409882 691.776245,464.498718 693.102478,466.172638  C695.317200,468.968109 697.351257,471.998596 699.974670,474.359863  C706.065979,479.842560 712.559570,484.877960 718.659119,490.352020  C719.936829,491.498688 720.220154,493.753296 720.930847,495.901001  C709.752441,489.373138 698.604980,482.441681 687.207336,475.268707  z"/>
  <path fill="#F23969" d="M432.866211,501.946045  C434.947540,498.374817 437.028839,494.803589 439.781921,491.081207  C442.446411,491.617584 444.916290,491.779236 446.351196,493.081390  C453.551117,499.615234 460.658203,506.273529 467.453827,513.224426  C474.028015,519.948792 480.304504,526.977905 486.452789,534.096863  C488.410431,536.363586 489.538788,539.346497 491.046631,542.001709  C488.839691,546.479431 486.632751,550.957214 483.950317,555.475464  C482.771240,554.080933 482.340393,552.404541 481.319153,551.250610  C475.294586,544.443359 468.580200,538.172607 463.144226,530.935486  C454.592590,519.550354 444.726807,509.764343 432.866211,501.946045  z"/>
  <path fill="#C604F9" d="M471.473175,452.025787  C478.049927,455.966583 484.696716,459.572632 490.475128,464.251190  C494.719574,467.687714 498.270996,472.230377 501.347137,476.807068  C507.614990,486.132477 517.808594,490.332031 526.231079,496.829559  C526.667664,497.166382 527.524536,496.958466 528.565918,497.000427  C524.989441,500.632202 521.032715,504.267670 516.413086,507.975159  C514.935242,507.530121 514.016418,507.124878 513.320862,506.479156  C504.189087,498.002136 495.046844,489.535614 485.993866,480.974854  C478.558044,473.943359 471.237610,466.789795 463.866028,459.690308  C466.300934,457.177185 468.735901,454.664062 471.473175,452.025787  z"/>
  <path fill="#F85451" d="M476.246704,578.812622  C475.853943,578.500732 475.846283,577.699524 475.442780,577.271667  C467.157776,568.486511 458.753906,559.812500 450.534454,550.966919  C445.704834,545.769409 441.547424,539.885498 436.355652,535.105408  C432.072113,531.161682 426.712830,528.386414 421.481079,525.044067  C422.825439,521.095215 424.518921,517.195740 426.906921,513.125732  C431.495605,514.896423 436.394897,515.927490 439.115051,518.931641  C453.071899,534.345825 466.468079,550.267639 480.060181,566.012146  C478.855957,570.173828 477.651703,574.335510 476.246704,578.812622  z"/>
  <path fill="#DF23A5" d="M491.293274,541.773682  C489.538788,539.346497 488.410431,536.363586 486.452789,534.096863  C480.304504,526.977905 474.028015,519.948792 467.453827,513.224426  C460.658203,506.273529 453.551117,499.615234 446.351196,493.081390  C444.916290,491.779236 442.446411,491.617584 440.044342,490.880554  C441.169739,488.294983 442.704590,485.758911 444.787476,482.955139  C445.530579,482.383789 445.725647,482.080139 445.920685,481.776459  C445.920685,481.776459 445.891052,481.907379 446.259521,481.920776  C448.786713,482.492340 451.517303,482.403351 453.006470,483.719269  C459.941040,489.846924 466.477753,496.421814 473.260712,502.724884  C481.170685,510.075226 489.248535,517.246033 497.090790,524.666748  C498.187531,525.704590 498.357178,527.722107 498.955963,529.286133  C496.483948,533.372620 494.011963,537.459106 491.293274,541.773682  z"/>
  <path fill="#F6455C" d="M480.283386,565.740479  C466.468079,550.267639 453.071899,534.345825 439.115051,518.931641  C436.394897,515.927490 431.495605,514.896423 427.190857,512.928406  C428.626984,509.381226 430.473755,505.860870 432.593384,502.143250  C444.726807,509.764343 454.592590,519.550354 463.144226,530.935486  C468.580200,538.172607 475.294586,544.443359 481.319153,551.250610  C482.340393,552.404541 482.771240,554.080933 483.733704,555.754395  C482.830597,559.151489 481.668610,562.310181 480.283386,565.740479  z"/>
  <path fill="#FB6D3C" d="M686.341553,804.567871  C678.264526,803.218811 671.648376,799.642639 668.011047,791.982788  C666.031311,787.813599 663.287292,784.657837 658.846497,782.788391  C656.404175,781.760376 654.630432,779.221619 652.234863,777.984192  C649.589661,776.617798 646.640381,775.626099 643.710083,775.079407  C639.978271,774.383362 636.490234,773.833862 636.126587,768.659424  C642.120239,767.789795 648.128113,766.590332 654.000183,767.066467  C672.713013,768.583801 687.398804,785.652344 686.341553,804.567871  z"/>
  <path fill="#D30BEC" d="M463.559326,459.843170  C471.237610,466.789795 478.558044,473.943359 485.993866,480.974854  C495.046844,489.535614 504.189087,498.002136 513.320862,506.479156  C514.016418,507.124878 514.935242,507.530121 516.127319,508.116058  C514.281982,510.724121 512.059631,513.263245 509.196045,515.883423  C502.905975,510.674774 497.220123,505.424011 491.616974,500.086395  C483.109650,491.982208 474.713806,483.760284 466.155945,475.710266  C463.184692,472.915405 459.872559,470.482941 456.716125,467.884949  C458.894958,465.255310 461.073822,462.625641 463.559326,459.843170  z"/>
  <path fill="#DB13DA" d="M456.424774,468.035645  C459.872559,470.482941 463.184692,472.915405 466.155945,475.710266  C474.713806,483.760284 483.109650,491.982208 491.616974,500.086395  C497.220123,505.424011 502.905975,510.674774 508.904663,516.030884  C507.108582,518.806824 504.962677,521.516357 502.491486,524.040039  C502.322968,519.878845 500.019043,517.638672 496.973877,515.456848  C492.033325,511.916962 487.180359,508.167053 482.762421,504.004852  C474.820557,496.522552 467.219971,488.677521 459.494293,480.966553  C456.349213,477.827545 452.883575,476.038361 448.402344,478.061401  C450.979370,474.769684 453.556396,471.477997 456.424774,468.035645  z"/>
  <path fill="#DF1BC2" d="M448.177307,478.235992  C452.883575,476.038361 456.349213,477.827545 459.494293,480.966553  C467.219971,488.677521 474.820557,496.522552 482.762421,504.004852  C487.180359,508.167053 492.033325,511.916962 496.973877,515.456848  C500.019043,517.638672 502.322968,519.878845 502.230774,524.293091  C501.361389,526.121765 500.427460,527.511597 499.224731,529.093811  C498.357178,527.722107 498.187531,525.704590 497.090790,524.666748  C489.248535,517.246033 481.170685,510.075226 473.260712,502.724884  C466.477753,496.421814 459.941040,489.846924 453.006470,483.719269  C451.517303,482.403351 448.786713,482.492340 446.199371,481.891052  C446.497925,480.702118 447.225098,479.556335 448.177307,478.235992  z"/>
  <path fill="#9B03F7" d="M834.042847,784.349182  C837.737244,784.448425 837.757812,782.050354 837.728088,779.230774  C839.375671,782.369385 840.793762,785.715088 842.206421,789.463745  C838.269348,790.069092 835.742737,788.064697 834.042847,784.349182  z"/>
  <path fill="#2A07FA" d="M623.325195,390.994202  C623.000000,390.995209 623.001709,390.522522 623.003540,390.286194  C623.773254,389.955414 624.541016,389.860992 625.650574,389.966309  C625.211670,390.441772 624.431030,390.717468 623.325195,390.994202  z"/>
  <path fill="#C404FD" d="M838.418213,811.279785  C838.104980,810.938721 838.062805,810.386658 838.010315,809.420166  C838.226257,809.023132 838.452454,809.040344 839.016235,809.099548  C839.132385,809.783936 838.910889,810.426270 838.418213,811.279785  z"/>
  <path fill="#8B05FC" d="M810.160156,745.872864  C810.032776,745.719238 810.137085,745.492493 810.454468,745.176636  C810.605591,745.331604 810.513672,745.569031 810.160156,745.872864  z"/>
  <path fill="#CC06F9" d="M835.431641,815.133118  C835.142212,814.965698 835.162476,814.620117 835.339355,813.774780  C835.577698,813.835022 835.659485,814.394958 835.431641,815.133118  z"/>
  <path fill="#7705FC" d="M708.026489,591.620728  C707.854736,591.909302 707.539307,591.884033 706.762207,591.737671  C706.827942,591.513306 707.355347,591.410156 708.026489,591.620728  z"/>
  <path fill="#3906FB" d="M768.650696,584.900024  C768.687744,585.107788 768.439392,585.416016 767.898804,585.809448  C767.859375,585.596497 768.112366,585.298462 768.650696,584.900024  z"/>
  <path fill="#2B08EC" d="M721.866089,497.334290  C722.055359,497.248444 722.386780,497.414551 722.869873,497.818604  C722.683838,497.899780 722.346008,497.743011 721.866089,497.334290  z"/>
  <path fill="#DF1BC2" d="M445.664185,481.883606  C445.725647,482.080139 445.530579,482.383789 445.092407,482.812653  C445.035431,482.622162 445.221527,482.306488 445.664185,481.883606  z"/>
  <path fill="#F6455C" d="M606.257202,840.851074  C606.229736,840.433411 606.491150,840.363464 606.893921,840.697266  C606.982910,840.832214 606.493774,840.930054 606.257202,840.851074  z"/>
</svg>