<svg version="1.1" id="Layer_1" xmlns="http://www.w3.org/2000/svg" xmlns:xlink="http://www.w3.org/1999/xlink" x="0px" y="0px"
	 width="100%" viewBox="0 0 1254 1254" enable-background="new 0 0 1254 1254" xml:space="preserve">

<path fill="#FFFFFF" opacity="1.000000" stroke="none" 
	d="
M159.266769,623.001160 
	C159.843552,559.708435 171.734970,499.142609 195.787704,441.129059 
	C214.376617,396.293823 239.085129,355.045837 270.163757,317.659363 
	C312.050049,267.271637 362.318420,227.372330 420.571198,197.561951 
	C467.796173,173.395020 517.839294,158.088470 570.401794,150.859436 
	C634.658508,142.022034 698.128784,146.120544 760.590820,163.210526 
	C831.098633,182.501907 893.643738,216.879745 948.384277,265.315704 
	C1007.206665,317.363403 1050.523560,380.264801 1078.206665,453.693237 
	C1105.119507,525.077881 1115.370483,598.885864 1107.288574,674.901245 
	C1098.751465,755.198547 1073.074463,829.515076 1027.821167,896.667480 
	C996.210510,943.575134 956.961121,983.077393 910.889160,1015.901611 
	C857.730042,1053.775024 799.265320,1079.650757 735.557495,1093.505249 
	C639.304504,1114.437012 545.362122,1105.875610 454.372498,1068.713379 
	C377.309906,1037.239258 312.804443,988.377258 261.288696,922.883972 
	C213.556061,862.200439 182.663712,793.689819 167.937927,717.886292 
	C161.881454,686.709534 159.137833,655.240051 159.266769,623.001160 
M172.030090,709.197327 
	C181.448364,761.282288 198.590149,810.595642 224.292892,856.961060 
	C262.208221,925.356812 314.187256,980.566650 379.586700,1023.169250 
	C437.776093,1061.075073 501.488098,1084.482666 570.197205,1094.257446 
	C656.246399,1106.498657 739.324219,1095.010864 819.045044,1060.987305 
	C899.249573,1026.757324 965.277649,974.263062 1016.283997,903.279663 
	C1062.480225,838.990356 1089.214966,767.009094 1100.007568,688.938354 
	C1107.185791,637.013611 1105.220825,585.288513 1095.145386,533.810425 
	C1081.615845,464.683685 1054.820679,401.245880 1012.841370,344.699249 
	C939.671143,246.138245 842.983582,184.068726 722.206482,160.377472 
	C672.390503,150.605698 622.218506,149.610687 571.966248,156.304047 
	C513.107117,164.143799 457.702576,182.620438 405.934052,211.814728 
	C347.953491,244.512207 298.775177,287.321075 259.143341,340.808563 
	C214.867493,400.563660 185.821274,467.060944 172.508957,540.324097 
	C162.339172,596.292664 162.035934,652.296997 172.030090,709.197327 
z"/>
<path fill="none" opacity="1.000000" stroke="none" 
	d="
M171.981934,708.766296 
	C162.035934,652.296997 162.339172,596.292664 172.508957,540.324097 
	C185.821274,467.060944 214.867493,400.563660 259.143341,340.808563 
	C298.775177,287.321075 347.953491,244.512207 405.934052,211.814728 
	C457.702576,182.620438 513.107117,164.143799 571.966248,156.304047 
	C622.218506,149.610687 672.390503,150.605698 722.206482,160.377472 
	C842.983582,184.068726 939.671143,246.138245 1012.841370,344.699249 
	C1054.820679,401.245880 1081.615845,464.683685 1095.145386,533.810425 
	C1105.220825,585.288513 1107.185791,637.013611 1100.007568,688.938354 
	C1089.214966,767.009094 1062.480225,838.990356 1016.283997,903.279663 
	C965.277649,974.263062 899.249573,1026.757324 819.045044,1060.987305 
	C739.324219,1095.010864 656.246399,1106.498657 570.197205,1094.257446 
	C501.488098,1084.482666 437.776093,1061.075073 379.586700,1023.169250 
	C314.187256,980.566650 262.208221,925.356812 224.292892,856.961060 
	C198.590149,810.595642 181.448364,761.282288 171.981934,708.766296 
M899.025452,406.457977 
	C891.525635,398.195892 884.298645,389.665405 876.479797,381.717194 
	C838.293701,342.899353 793.362244,314.646606 741.668579,297.584656 
	C679.656128,277.116913 616.615784,274.604156 553.436890,290.878784 
	C452.332794,316.922729 377.873413,377.431030 330.065643,469.816528 
	C294.867554,537.834534 283.996826,610.442871 297.788391,685.878296 
	C314.192291,775.602356 358.994690,848.584534 432.119202,903.311951 
	C501.578522,955.296265 580.072510,977.651428 666.522278,969.841309 
	C743.005371,962.931641 809.331116,932.244690 865.659851,880.297485 
	C905.379944,843.667114 934.698975,799.762390 953.825195,749.184875 
	C976.441833,689.377441 982.609253,627.927551 971.380432,564.902893 
	C960.913513,506.154633 937.063416,453.440125 899.025452,406.457977 
M613.616333,186.807343 
	C598.403198,182.850327 584.088013,188.708939 576.380798,202.046402 
	C569.188965,214.491882 571.253357,230.967636 581.308899,241.377686 
	C592.666931,253.136093 606.936768,253.758774 626.002319,243.207016 
	C628.630859,245.217300 631.335388,247.285660 634.183289,249.463684 
	C636.128906,246.890518 637.707092,244.803360 639.363037,242.613373 
	C636.686890,240.379333 634.292297,238.380280 631.948425,236.423645 
	C642.870667,215.194382 635.242432,193.942078 613.616333,186.807343 
M719.952515,250.426285 
	C716.949890,244.419571 713.947327,238.412857 710.854370,232.225433 
	C712.435791,231.801483 713.390991,231.536835 714.350708,231.289444 
	C723.425171,228.950470 728.574707,222.605682 729.221008,212.962952 
	C729.768921,204.788177 725.201538,196.691696 716.912231,194.437912 
	C705.930054,191.451904 694.570129,189.855469 683.082825,187.605103 
	C679.291443,208.802856 675.640320,229.216339 671.924011,249.994598 
	C675.391663,250.541046 678.440125,251.021423 681.730530,251.539932 
	C683.115723,243.831940 684.421326,236.566635 685.628113,229.851425 
	C696.160034,228.650467 702.569092,232.806213 705.291260,242.547974 
	C705.953125,244.916428 707.386597,247.068710 708.460449,249.322693 
	C712.467896,257.734894 713.497559,258.332153 723.562195,257.848145 
	C722.422974,255.515701 721.342957,253.304367 719.952515,250.426285 
M861.217957,276.595642 
	C864.997131,263.204742 860.814697,249.909897 849.646179,242.713547 
	C841.736877,237.617233 833.171936,233.538452 824.746643,228.921539 
	C814.962402,247.442703 805.374268,265.592743 795.632263,284.033966 
	C802.329773,287.615295 808.757812,291.057648 815.190613,294.491241 
	C834.127563,304.599182 853.230164,297.470734 861.217957,276.595642 
M423.649048,263.841644 
	C430.034119,262.231659 432.934326,263.416199 436.316925,269.400116 
	C440.717926,277.185699 444.970520,285.055206 449.387238,293.070557 
	C452.345367,291.459473 454.943390,290.044464 457.792480,288.492767 
	C456.883148,286.785797 456.132233,285.344971 455.353302,283.919434 
	C451.770813,277.363129 448.135712,270.835083 444.610168,264.248352 
	C442.574402,260.444885 442.028412,256.071381 445.177185,253.102417 
	C447.546478,250.868408 451.593353,248.970520 454.628326,249.307953 
	C457.435303,249.620071 460.676666,252.608505 462.350708,255.280426 
	C467.163879,262.962524 471.280670,271.080872 475.791626,279.245880 
	C478.804626,277.616486 481.389801,276.218414 484.328186,274.629333 
	C478.817963,264.777618 473.740417,255.071701 468.057281,245.734375 
	C463.382019,238.052979 455.751801,236.294647 447.697083,240.193924 
	C441.688263,243.102768 438.597717,248.145966 437.418457,254.522446 
	C424.915009,249.901321 418.026550,253.358612 412.767944,266.935608 
	C411.627319,265.231323 410.591248,263.683197 409.475708,262.016388 
	C406.626953,263.774811 404.011322,265.389343 401.152863,267.153778 
	C408.648804,280.903625 415.851410,294.115479 423.178772,307.556091 
	C426.321777,305.789001 428.982269,304.293182 431.612244,302.814545 
	C427.097961,294.379608 422.674530,286.576294 418.704376,278.548767 
	C415.573456,272.218048 416.958649,268.244781 423.649048,263.841644 
M513.877441,275.335602 
	C514.652710,275.981934 515.340881,277.019714 516.216614,277.214630 
	C526.142822,279.423798 534.456482,274.035553 535.788574,263.858673 
	C537.972351,247.175430 539.619080,230.421753 541.460754,213.694290 
	C541.596924,212.457336 541.478638,211.192398 541.478638,209.907410 
	C531.966309,211.210556 532.062256,211.218033 531.357056,220.273224 
	C530.642761,229.446823 529.712219,238.603592 528.751343,249.138474 
	C522.625366,240.516922 517.336975,233.094620 512.070557,225.656738 
	C506.903412,218.358994 506.912292,218.349106 498.244202,221.157150 
	C497.984894,221.241180 497.793762,221.535614 497.394257,221.887466 
	C498.338379,223.277878 499.199219,224.679153 500.189148,225.982361 
	C508.350494,236.726624 516.461487,247.510788 524.770874,258.139648 
	C526.636230,260.525665 527.748047,263.033081 525.850464,265.286407 
	C524.333313,267.087921 521.730835,268.120880 519.432373,269.060150 
	C518.200378,269.563629 516.593384,269.149597 515.180786,269.149597 
	C514.749023,271.248535 514.413879,272.877960 513.877441,275.335602 
M897.340149,910.664612 
	C889.834229,913.037659 883.934998,917.365601 880.992126,924.876404 
	C877.315125,934.260925 879.676147,942.625732 886.357910,949.703308 
	C892.529846,956.240845 900.227844,958.983032 909.047546,956.079102 
	C918.758484,952.881714 924.195435,945.656677 926.283691,935.844604 
	C926.513062,934.766907 926.060364,933.160583 925.325928,932.325867 
	C921.615112,928.108948 917.706238,924.066223 913.773865,919.862976 
	C909.139465,924.218323 904.819214,928.278381 900.666626,932.180969 
	C902.365295,933.849365 903.740662,935.200317 905.283997,936.716125 
	C906.438660,935.640564 907.755615,934.401245 909.086670,933.177246 
	C910.368896,931.998108 911.665710,930.834900 914.096069,928.630798 
	C915.754517,932.739929 918.417053,936.058777 917.951050,938.856506 
	C916.943298,944.906067 910.619446,949.255859 904.526245,949.696167 
	C898.315796,950.144958 891.352844,945.731323 888.155151,939.318909 
	C885.253723,933.500671 885.722412,927.189697 890.564880,922.814209 
	C893.958191,919.748047 898.461914,917.910706 903.169250,915.108093 
	C903.119141,914.310303 902.998108,912.381531 902.852173,910.057861 
	C901.013306,910.210266 899.572449,910.329712 897.340149,910.664612 
M981.811768,845.820374 
	C983.190491,845.624756 984.647339,845.044006 985.933472,845.304810 
	C990.005493,846.130859 994.127319,846.958679 998.017151,848.371460 
	C1002.610657,850.039856 1005.630310,849.267090 1007.102234,843.986511 
	C1000.002502,835.450073 992.775452,826.760498 985.304993,817.778320 
	C983.914429,819.744568 982.689636,821.476379 981.350342,823.370117 
	C986.371887,829.242310 991.251709,834.948792 996.131470,840.655212 
	C989.739441,840.016663 983.879395,838.782532 978.311462,836.748657 
	C973.927429,835.147156 971.409302,836.124573 969.826965,840.699341 
	C974.429077,846.306946 979.149780,852.059021 983.870544,857.811096 
	C983.560059,858.143005 983.249634,858.474915 982.939148,858.806824 
	C977.731445,857.233032 972.516602,855.682251 967.317810,854.079468 
	C960.902100,852.101685 960.907837,852.083069 957.759949,858.913635 
	C967.298340,861.385986 976.881836,863.506165 986.208984,866.441040 
	C990.875549,867.909302 993.440063,867.065430 995.006165,862.264587 
	C990.827454,857.119080 986.529968,851.827332 981.811768,845.820374 
M586.308838,1019.290405 
	C585.145630,1027.888916 587.162781,1031.652344 595.014587,1034.953369 
	C598.682800,1036.495605 602.711304,1037.313843 606.140259,1039.237671 
	C607.919800,1040.236084 609.851440,1043.019043 609.702209,1044.829956 
	C609.548523,1046.695679 607.103088,1049.640503 605.388367,1049.846191 
	C601.802429,1050.276489 597.871887,1049.728882 594.398132,1048.606812 
	C591.567200,1047.692505 589.194763,1045.358521 586.582520,1043.629883 
	C584.813538,1045.217041 583.225159,1046.642212 581.590454,1048.108765 
	C587.574402,1054.750366 594.674927,1057.368774 602.881104,1057.290161 
	C611.070740,1057.211792 616.395752,1053.130615 617.756409,1046.005981 
	C618.953308,1039.738770 615.153076,1034.205811 607.636292,1031.371094 
	C604.683716,1030.257690 601.690247,1029.252197 598.711609,1028.208496 
	C595.165710,1026.965942 592.828918,1024.809326 593.916382,1020.749512 
	C595.007690,1016.674744 598.475952,1015.778564 601.853638,1016.604797 
	C606.229919,1017.675171 610.386230,1019.644531 614.972290,1021.351624 
	C615.866577,1020.140930 617.122314,1018.440979 618.428650,1016.672424 
	C612.579163,1011.097412 605.876526,1009.154114 598.430359,1010.018127 
	C593.062683,1010.641052 588.496460,1012.845703 586.308838,1019.290405 
M270.305542,819.778687 
	C262.494751,826.103333 259.627167,834.741394 262.365326,843.697144 
	C265.142181,852.779480 272.155334,858.910217 280.880920,859.655212 
	C281.171265,857.773682 281.464142,855.875793 281.736725,854.109192 
	C271.359222,849.235413 267.085602,842.200073 269.409180,834.307800 
	C271.678070,826.601379 280.360809,821.037964 288.434570,822.117493 
	C297.090027,823.274780 301.170837,829.605347 301.216827,842.328674 
	C303.301392,842.802124 305.465515,843.293579 308.452972,843.972107 
	C308.452972,840.455261 308.682922,837.651001 308.415161,834.895142 
	C306.831390,818.595581 287.125519,807.378845 270.305542,819.778687 
M660.781860,1055.016479 
	C660.594849,1048.023560 660.616577,1041.017212 660.166809,1034.041260 
	C659.633301,1025.766235 653.134644,1020.994141 645.223694,1023.199707 
	C642.409424,1023.984375 639.972046,1026.120239 636.886475,1027.916626 
	C636.886475,1022.068787 636.886475,1016.485779 636.886475,1010.372314 
	C634.175903,1010.526978 631.970825,1010.652771 630.526733,1010.735168 
	C630.526733,1026.841431 630.526733,1042.386353 630.526733,1057.870117 
	C633.547607,1057.870117 635.628235,1057.870117 637.601440,1057.870117 
	C637.601440,1051.282227 637.551453,1044.984619 637.615784,1038.688232 
	C637.678040,1032.589233 640.547119,1029.269775 645.581543,1029.284424 
	C650.449036,1029.298584 652.950989,1032.307129 653.022217,1038.465088 
	C653.094849,1044.747314 653.038269,1051.031128 653.038269,1058.817261 
	C656.462585,1057.531250 658.622620,1056.719971 660.781860,1055.016479 
M754.768982,263.821106 
	C754.388733,265.053284 754.008484,266.285431 753.522461,267.860260 
	C756.709595,268.903748 759.624207,269.858002 762.938416,270.943085 
	C769.653503,250.769043 776.225586,231.024872 782.902039,210.966934 
	C779.295105,209.924713 776.371399,209.079926 773.391357,208.218857 
	C770.216675,217.772141 767.255737,226.757095 764.243835,235.724899 
	C761.175171,244.861664 758.056458,253.981583 754.768982,263.821106 
M751.678528,1038.953125 
	C761.621399,1040.525879 768.751221,1037.095459 772.580688,1028.713135 
	C770.959351,1027.992432 769.344055,1027.274414 767.823181,1026.598389 
	C759.982971,1035.404053 752.416565,1035.620728 748.022705,1027.125977 
	C755.772034,1024.686157 763.475586,1022.260681 771.118347,1019.854370 
	C769.114197,1008.918091 761.221252,1002.998047 751.627380,1004.872009 
	C742.346436,1006.684814 737.049500,1015.494141 739.344482,1025.482544 
	C740.826843,1031.934326 744.592712,1036.499634 751.678528,1038.953125 
M397.731232,979.206787 
	C397.406860,977.638977 397.082489,976.071167 396.780090,974.609619 
	C385.340271,974.093445 380.371399,967.860168 384.915955,959.703796 
	C388.174316,962.021729 391.391693,964.338013 394.638397,966.612366 
	C397.858002,968.867737 401.107025,971.081055 404.298340,973.281921 
	C412.031219,964.031982 411.781647,954.323547 403.969330,948.426025 
	C397.548340,943.578674 389.859314,943.800720 383.262695,949.024109 
	C376.740143,954.188843 374.404968,963.422363 377.814911,970.565247 
	C381.254089,977.769409 389.123962,981.529480 397.731232,979.206787 
M685.891602,1055.514404 
	C688.987183,1054.112793 692.082825,1052.711182 695.178406,1051.309448 
	C695.073975,1051.605835 694.969543,1051.902222 694.865173,1052.198608 
	C697.365723,1052.485107 699.866333,1052.771484 703.012451,1053.131958 
	C702.047913,1045.206909 701.431641,1038.275879 700.312561,1031.427124 
	C698.953552,1023.110046 693.950195,1019.095276 685.675171,1020.109985 
	C681.055237,1020.676575 676.595459,1022.550232 671.602112,1023.965698 
	C673.020691,1026.602417 673.918884,1028.271851 674.809509,1029.927246 
	C686.188782,1024.196655 693.055725,1025.687866 692.881287,1033.566162 
	C677.755676,1033.615723 671.667358,1036.953857 671.834290,1045.105957 
	C671.979919,1052.213257 676.523804,1055.835815 685.891602,1055.514404 
M317.643188,863.897461 
	C309.580139,856.208069 301.322021,855.244568 293.461060,861.075989 
	C286.587891,866.174805 284.410431,875.887756 288.439301,883.477112 
	C293.151337,892.353455 303.881836,895.546997 312.367065,890.598389 
	C322.187378,884.871155 324.430481,874.628052 317.643188,863.897461 
M972.806519,879.994324 
	C967.839905,870.413025 960.383545,866.786438 951.240112,869.505005 
	C942.314148,872.158936 936.995544,881.835144 939.523193,890.821533 
	C942.227417,900.435608 951.772156,905.682312 961.441772,902.870117 
	C970.855652,900.132324 975.734985,890.837158 972.806519,879.994324 
M333.949402,925.430115 
	C337.831512,921.781555 341.886688,918.298157 345.558777,914.449219 
	C352.664978,907.000732 349.272949,896.286987 339.229401,894.030884 
	C338.326202,893.828003 337.393524,893.756348 335.903015,893.541260 
	C340.409424,888.370667 334.768219,887.898865 332.795898,884.266663 
	C324.935883,893.152222 317.598083,901.447510 310.084808,909.941101 
	C310.637817,910.531616 312.057343,912.047485 315.247955,915.454590 
	C319.552368,910.194275 323.134583,905.101746 327.454468,900.739868 
	C331.702240,896.450562 335.879944,896.645996 339.214996,900.249084 
	C342.701019,904.015381 342.383118,907.443726 337.843872,911.895874 
	C333.386963,916.267334 328.765808,920.471313 324.061401,924.894897 
	C325.756744,926.768188 327.174225,928.334473 328.765869,930.093201 
	C330.505585,928.535156 331.971344,927.222473 333.949402,925.430115 
M366.805511,952.315674 
	C369.946594,948.658691 373.311859,945.168457 376.181305,941.309509 
	C381.834625,933.706299 377.600861,923.927551 368.189331,922.495605 
	C366.838593,922.290039 365.450958,922.327148 363.884766,922.241272 
	C367.679291,917.089966 362.660400,916.768433 360.481628,914.479309 
	C353.090302,923.050720 345.963226,931.315613 338.609772,939.843079 
	C340.454559,941.434448 342.037872,942.800232 343.979462,944.475098 
	C348.115448,939.716980 352.013855,935.224121 355.921295,930.739075 
	C360.030792,926.022278 364.595276,925.302490 368.398621,928.759949 
	C372.001312,932.035095 371.592651,936.080200 367.282379,940.922058 
	C363.346161,945.343872 359.488037,949.835144 355.439362,954.474670 
	C357.421661,956.122070 359.032379,957.460571 360.919067,959.028503 
	C362.858490,956.810303 364.594818,954.824402 366.805511,952.315674 
M427.683502,973.964355 
	C434.089600,973.650757 437.145691,977.731567 439.194214,983.242004 
	C441.315979,982.698853 443.172546,982.223633 445.018585,981.751038 
	C442.609772,971.053345 433.128021,965.080017 423.318207,967.793457 
	C413.470001,970.517517 407.730927,981.840271 411.236938,991.628723 
	C414.349030,1000.317261 424.635834,1004.785339 433.360504,1000.943481 
	C432.758240,999.326904 432.148254,997.689575 431.576385,996.154602 
	C421.955902,996.336182 417.393860,992.940552 417.447052,985.892090 
	C417.489777,980.231018 420.853760,976.001709 427.683502,973.964355 
M449.312805,997.719177 
	C448.526245,999.362061 447.734436,1001.002502 446.954071,1002.648315 
	C442.408997,1012.233826 446.122223,1018.087952 457.045166,1018.119446 
	C457.698761,1016.633667 458.397003,1015.046387 459.119263,1013.404480 
	C451.692078,1011.518188 450.968689,1010.124390 454.106628,1003.756775 
	C456.135010,999.640747 458.360474,995.621887 460.591431,991.381287 
	C463.478821,992.691223 465.995056,993.832825 468.809998,995.109863 
	C469.801117,993.258240 470.697540,991.583557 471.692352,989.724976 
	C468.881439,988.115356 466.493286,986.747864 464.012634,985.327332 
	C465.299103,982.433533 466.417236,979.918457 467.709137,977.012512 
	C465.450714,975.876648 463.484863,974.887939 461.360382,973.819458 
	C459.843231,976.742798 458.565582,979.204651 457.281189,981.679504 
	C455.676056,981.381592 454.289276,981.124207 452.752991,980.839050 
	C451.981293,982.513977 451.305084,983.981628 450.609161,985.492065 
	C451.692108,986.519958 452.623779,987.404236 453.587189,988.318726 
	C452.256744,991.327393 450.985565,994.201965 449.312805,997.719177 
M712.948486,1029.801025 
	C714.439453,1036.260986 715.930481,1042.720947 717.526794,1049.637207 
	C720.057312,1049.032349 722.188110,1048.522949 724.524780,1047.964478 
	C723.662048,1043.808105 722.945618,1040.226196 722.172546,1036.656738 
	C719.984680,1026.553833 721.497559,1023.134277 730.558594,1018.307739 
	C730.026306,1016.195984 729.475342,1014.010437 728.507935,1010.172485 
	C724.469482,1013.931274 721.293091,1016.887695 718.323120,1019.652039 
	C717.876953,1018.312439 717.325134,1016.655762 716.731567,1014.873840 
	C714.255676,1015.471741 712.223328,1015.962585 709.798706,1016.548096 
	C710.835449,1020.945496 711.784363,1024.970337 712.948486,1029.801025 
M341.619080,318.158539 
	C339.770844,318.839569 337.720764,319.211548 336.113495,320.261475 
	C331.839996,323.053009 330.358093,327.432648 331.769836,331.982086 
	C333.131073,336.368805 337.324097,339.678284 341.828278,339.610535 
	C346.823212,339.535461 350.366730,337.116394 352.148865,332.382050 
	C354.602478,325.864105 350.471649,319.862274 341.619080,318.158539 
M919.408752,321.914185 
	C915.868042,325.983704 915.758179,330.449860 918.503113,334.806152 
	C920.908203,338.623230 924.606812,340.449097 929.214905,339.467773 
	C933.903625,338.469269 936.879150,335.491089 937.804077,330.806183 
	C938.752075,326.004272 936.674683,322.284393 932.706787,319.760956 
	C928.113770,316.839966 923.823425,317.956055 919.408752,321.914185 
M919.291260,909.988037 
	C926.189941,916.407593 933.088623,922.827087 940.262146,929.502380 
	C942.062622,927.722900 943.563599,926.239319 944.996460,924.823181 
	C939.189636,916.076721 924.346436,911.503296 933.895508,897.020935 
	C932.045715,895.417053 930.369263,893.963501 927.235535,891.246399 
	C926.139832,896.680420 925.339417,900.649963 924.551758,904.556152 
	C923.589478,903.862793 922.203674,902.864197 920.667053,901.756897 
	C919.050720,903.494934 917.638977,905.012878 916.143616,906.620789 
	C917.209900,907.758606 917.995422,908.596863 919.291260,909.988037 
M842.493652,982.278748 
	C839.103027,974.355469 830.980835,972.116150 825.484253,977.589111 
	C822.387451,980.672607 821.640076,985.759766 823.732849,989.510742 
	C826.107910,993.767700 831.171692,995.982544 835.587524,994.695923 
	C840.321106,993.316711 842.866272,989.158630 842.493652,982.278748 
M520.492188,1012.030640 
	C515.650879,1013.748596 512.742004,1017.439087 513.613770,1022.265564 
	C514.179443,1025.397095 516.648376,1028.915283 519.306030,1030.758301 
	C522.831116,1033.202759 527.084473,1031.998047 530.243042,1028.965454 
	C533.612854,1025.730225 534.182190,1021.633484 532.306763,1017.490601 
	C530.188171,1012.810730 526.229370,1011.159119 520.492188,1012.030640 
z"/>
<path fill="#FFFFFF" opacity="1.000000" stroke="none" 
	d="
M899.234802,406.744995 
	C937.063416,453.440125 960.913513,506.154633 971.380432,564.902893 
	C982.609253,627.927551 976.441833,689.377441 953.825195,749.184875 
	C934.698975,799.762390 905.379944,843.667114 865.659851,880.297485 
	C809.331116,932.244690 743.005371,962.931641 666.522278,969.841309 
	C580.072510,977.651428 501.578522,955.296265 432.119202,903.311951 
	C358.994690,848.584534 314.192291,775.602356 297.788391,685.878296 
	C283.996826,610.442871 294.867554,537.834534 330.065643,469.816528 
	C377.873413,377.431030 452.332794,316.922729 553.436890,290.878784 
	C616.615784,274.604156 679.656128,277.116913 741.668579,297.584656 
	C793.362244,314.646606 838.293701,342.899353 876.479797,381.717194 
	C884.298645,389.665405 891.525635,398.195892 899.234802,406.744995 
M521.098999,306.253204 
	C440.261536,336.724365 379.085571,389.959473 338.159607,465.921692 
	C304.017700,529.292114 291.561554,597.161682 300.730621,668.529297 
	C311.018799,748.607544 345.843048,816.766602 404.089020,872.590149 
	C458.453766,924.693848 523.425781,955.426270 598.217468,963.750977 
	C688.083496,973.753601 769.098267,950.114197 840.288269,894.625854 
	C902.671326,846.002014 943.712524,782.613098 961.455872,705.645996 
	C987.012878,594.784546 963.283386,494.329987 891.276428,406.144958 
	C854.079102,360.590393 807.170959,327.542816 751.911621,307.139709 
	C675.477173,278.918304 598.668701,279.189301 521.098999,306.253204 
z"/>
<path fill="#FFFFFF" opacity="1.000000" stroke="none" 
	d="
M614.012451,186.882294 
	C635.242432,193.942078 642.870667,215.194382 631.948425,236.423645 
	C634.292297,238.380280 636.686890,240.379333 639.363037,242.613373 
	C637.707092,244.803360 636.128906,246.890518 634.183289,249.463684 
	C631.335388,247.285660 628.630859,245.217300 626.002319,243.207016 
	C606.936768,253.758774 592.666931,253.136093 581.308899,241.377686 
	C571.253357,230.967636 569.188965,214.491882 576.380798,202.046402 
	C584.088013,188.708939 598.403198,182.850327 614.012451,186.882294 
M623.609863,206.094147 
	C622.007263,204.195007 620.604370,202.071762 618.767944,200.434952 
	C610.060547,192.673782 597.318665,193.169266 589.013611,201.448273 
	C580.570862,209.864502 580.310242,224.903580 588.445374,234.235809 
	C595.668579,242.521942 608.578796,243.759338 617.903259,236.824463 
	C614.588867,234.066147 611.323486,231.348633 607.924988,228.520309 
	C609.804260,226.155197 611.511780,224.006256 613.246826,221.822647 
	C616.982727,224.726654 620.316223,227.317841 623.884705,230.091660 
	C628.307495,221.930328 627.812195,214.350754 623.609863,206.094147 
z"/>
<path fill="#FFFFFF" opacity="1.000000" stroke="none" 
	d="
M720.107727,250.759659 
	C721.342957,253.304367 722.422974,255.515701 723.562195,257.848145 
	C713.497559,258.332153 712.467896,257.734894 708.460449,249.322693 
	C707.386597,247.068710 705.953125,244.916428 705.291260,242.547974 
	C702.569092,232.806213 696.160034,228.650467 685.628113,229.851425 
	C684.421326,236.566635 683.115723,243.831940 681.730530,251.539932 
	C678.440125,251.021423 675.391663,250.541046 671.924011,249.994598 
	C675.640320,229.216339 679.291443,208.802856 683.082825,187.605103 
	C694.570129,189.855469 705.930054,191.451904 716.912231,194.437912 
	C725.201538,196.691696 729.768921,204.788177 729.221008,212.962952 
	C728.574707,222.605682 723.425171,228.950470 714.350708,231.289444 
	C713.390991,231.536835 712.435791,231.801483 710.854370,232.225433 
	C713.947327,238.412857 716.949890,244.419571 720.107727,250.759659 
M710.395203,201.843246 
	C704.083557,200.754181 697.771851,199.665131 691.143127,198.521378 
	C689.807739,206.060410 688.606506,212.842072 687.317139,220.121246 
	C693.862549,221.188446 700.030518,222.470261 706.264282,223.136337 
	C713.127197,223.869659 717.333801,220.928711 718.776978,215.139053 
	C720.270874,209.145813 717.769226,204.813370 710.395203,201.843246 
z"/>
<path fill="#FFFFFF" opacity="1.000000" stroke="none" 
	d="
M861.135254,276.988007 
	C853.230164,297.470734 834.127563,304.599182 815.190613,294.491241 
	C808.757812,291.057648 802.329773,287.615295 795.632263,284.033966 
	C805.374268,265.592743 814.962402,247.442703 824.746643,228.921539 
	C833.171936,233.538452 841.736877,237.617233 849.646179,242.713547 
	C860.814697,249.909897 864.997131,263.204742 861.135254,276.988007 
M829.513550,242.073273 
	C822.546509,254.814606 815.579468,267.555939 808.476318,280.546295 
	C813.278442,283.057770 817.333984,285.331848 821.518311,287.337036 
	C832.032837,292.375885 843.733643,288.502167 849.342346,278.243469 
	C855.282288,267.378967 852.733948,255.554169 842.870605,249.285583 
	C838.811646,246.705902 834.440613,244.617188 829.513550,242.073273 
z"/>
<path fill="#FFFFFF" opacity="1.000000" stroke="none" 
	d="
M423.281403,263.979340 
	C416.958649,268.244781 415.573456,272.218048 418.704376,278.548767 
	C422.674530,286.576294 427.097961,294.379608 431.612244,302.814545 
	C428.982269,304.293182 426.321777,305.789001 423.178772,307.556091 
	C415.851410,294.115479 408.648804,280.903625 401.152863,267.153778 
	C404.011322,265.389343 406.626953,263.774811 409.475708,262.016388 
	C410.591248,263.683197 411.627319,265.231323 412.767944,266.935608 
	C418.026550,253.358612 424.915009,249.901321 437.418457,254.522446 
	C438.597717,248.145966 441.688263,243.102768 447.697083,240.193924 
	C455.751801,236.294647 463.382019,238.052979 468.057281,245.734375 
	C473.740417,255.071701 478.817963,264.777618 484.328186,274.629333 
	C481.389801,276.218414 478.804626,277.616486 475.791626,279.245880 
	C471.280670,271.080872 467.163879,262.962524 462.350708,255.280426 
	C460.676666,252.608505 457.435303,249.620071 454.628326,249.307953 
	C451.593353,248.970520 447.546478,250.868408 445.177185,253.102417 
	C442.028412,256.071381 442.574402,260.444885 444.610168,264.248352 
	C448.135712,270.835083 451.770813,277.363129 455.353302,283.919434 
	C456.132233,285.344971 456.883148,286.785797 457.792480,288.492767 
	C454.943390,290.044464 452.345367,291.459473 449.387238,293.070557 
	C444.970520,285.055206 440.717926,277.185699 436.316925,269.400116 
	C432.934326,263.416199 430.034119,262.231659 423.281403,263.979340 
z"/>
<path fill="#FFFFFF" opacity="1.000000" stroke="none" 
	d="
M513.978088,274.921478 
	C514.413879,272.877960 514.749023,271.248535 515.180786,269.149597 
	C516.593384,269.149597 518.200378,269.563629 519.432373,269.060150 
	C521.730835,268.120880 524.333313,267.087921 525.850464,265.286407 
	C527.748047,263.033081 526.636230,260.525665 524.770874,258.139648 
	C516.461487,247.510788 508.350494,236.726624 500.189148,225.982361 
	C499.199219,224.679153 498.338379,223.277878 497.394257,221.887466 
	C497.793762,221.535614 497.984894,221.241180 498.244202,221.157150 
	C506.912292,218.349106 506.903412,218.358994 512.070557,225.656738 
	C517.336975,233.094620 522.625366,240.516922 528.751343,249.138474 
	C529.712219,238.603592 530.642761,229.446823 531.357056,220.273224 
	C532.062256,211.218033 531.966309,211.210556 541.478638,209.907410 
	C541.478638,211.192398 541.596924,212.457336 541.460754,213.694290 
	C539.619080,230.421753 537.972351,247.175430 535.788574,263.858673 
	C534.456482,274.035553 526.142822,279.423798 516.216614,277.214630 
	C515.340881,277.019714 514.652710,275.981934 513.978088,274.921478 
z"/>
<path fill="#FFFFFF" opacity="1.000000" stroke="none" 
	d="
M897.735840,910.556885 
	C899.572449,910.329712 901.013306,910.210266 902.852173,910.057861 
	C902.998108,912.381531 903.119141,914.310303 903.169250,915.108093 
	C898.461914,917.910706 893.958191,919.748047 890.564880,922.814209 
	C885.722412,927.189697 885.253723,933.500671 888.155151,939.318909 
	C891.352844,945.731323 898.315796,950.144958 904.526245,949.696167 
	C910.619446,949.255859 916.943298,944.906067 917.951050,938.856506 
	C918.417053,936.058777 915.754517,932.739929 914.096069,928.630798 
	C911.665710,930.834900 910.368896,931.998108 909.086670,933.177246 
	C907.755615,934.401245 906.438660,935.640564 905.283997,936.716125 
	C903.740662,935.200317 902.365295,933.849365 900.666626,932.180969 
	C904.819214,928.278381 909.139465,924.218323 913.773865,919.862976 
	C917.706238,924.066223 921.615112,928.108948 925.325928,932.325867 
	C926.060364,933.160583 926.513062,934.766907 926.283691,935.844604 
	C924.195435,945.656677 918.758484,952.881714 909.047546,956.079102 
	C900.227844,958.983032 892.529846,956.240845 886.357910,949.703308 
	C879.676147,942.625732 877.315125,934.260925 880.992126,924.876404 
	C883.934998,917.365601 889.834229,913.037659 897.735840,910.556885 
z"/>
<path fill="#FFFFFF" opacity="1.000000" stroke="none" 
	d="
M982.022095,846.177979 
	C986.529968,851.827332 990.827454,857.119080 995.006165,862.264587 
	C993.440063,867.065430 990.875549,867.909302 986.208984,866.441040 
	C976.881836,863.506165 967.298340,861.385986 957.759949,858.913635 
	C960.907837,852.083069 960.902100,852.101685 967.317810,854.079468 
	C972.516602,855.682251 977.731445,857.233032 982.939148,858.806824 
	C983.249634,858.474915 983.560059,858.143005 983.870544,857.811096 
	C979.149780,852.059021 974.429077,846.306946 969.826965,840.699341 
	C971.409302,836.124573 973.927429,835.147156 978.311462,836.748657 
	C983.879395,838.782532 989.739441,840.016663 996.131470,840.655212 
	C991.251709,834.948792 986.371887,829.242310 981.350342,823.370117 
	C982.689636,821.476379 983.914429,819.744568 985.304993,817.778320 
	C992.775452,826.760498 1000.002502,835.450073 1007.102234,843.986511 
	C1005.630310,849.267090 1002.610657,850.039856 998.017151,848.371460 
	C994.127319,846.958679 990.005493,846.130859 985.933472,845.304810 
	C984.647339,845.044006 983.190491,845.624756 982.022095,846.177979 
z"/>
<path fill="#FFFFFF" opacity="1.000000" stroke="none" 
	d="
M586.465698,1018.914429 
	C588.496460,1012.845703 593.062683,1010.641052 598.430359,1010.018127 
	C605.876526,1009.154114 612.579163,1011.097412 618.428650,1016.672424 
	C617.122314,1018.440979 615.866577,1020.140930 614.972290,1021.351624 
	C610.386230,1019.644531 606.229919,1017.675171 601.853638,1016.604797 
	C598.475952,1015.778564 595.007690,1016.674744 593.916382,1020.749512 
	C592.828918,1024.809326 595.165710,1026.965942 598.711609,1028.208496 
	C601.690247,1029.252197 604.683716,1030.257690 607.636292,1031.371094 
	C615.153076,1034.205811 618.953308,1039.738770 617.756409,1046.005981 
	C616.395752,1053.130615 611.070740,1057.211792 602.881104,1057.290161 
	C594.674927,1057.368774 587.574402,1054.750366 581.590454,1048.108765 
	C583.225159,1046.642212 584.813538,1045.217041 586.582520,1043.629883 
	C589.194763,1045.358521 591.567200,1047.692505 594.398132,1048.606812 
	C597.871887,1049.728882 601.802429,1050.276489 605.388367,1049.846191 
	C607.103088,1049.640503 609.548523,1046.695679 609.702209,1044.829956 
	C609.851440,1043.019043 607.919800,1040.236084 606.140259,1039.237671 
	C602.711304,1037.313843 598.682800,1036.495605 595.014587,1034.953369 
	C587.162781,1031.652344 585.145630,1027.888916 586.465698,1018.914429 
z"/>
<path fill="#FFFFFF" opacity="1.000000" stroke="none" 
	d="
M270.589600,819.557007 
	C287.125519,807.378845 306.831390,818.595581 308.415161,834.895142 
	C308.682922,837.651001 308.452972,840.455261 308.452972,843.972107 
	C305.465515,843.293579 303.301392,842.802124 301.216827,842.328674 
	C301.170837,829.605347 297.090027,823.274780 288.434570,822.117493 
	C280.360809,821.037964 271.678070,826.601379 269.409180,834.307800 
	C267.085602,842.200073 271.359222,849.235413 281.736725,854.109192 
	C281.464142,855.875793 281.171265,857.773682 280.880920,859.655212 
	C272.155334,858.910217 265.142181,852.779480 262.365326,843.697144 
	C259.627167,834.741394 262.494751,826.103333 270.589600,819.557007 
z"/>
<path fill="#FFFFFF" opacity="1.000000" stroke="none" 
	d="
M660.782227,1055.462646 
	C658.622620,1056.719971 656.462585,1057.531250 653.038269,1058.817261 
	C653.038269,1051.031128 653.094849,1044.747314 653.022217,1038.465088 
	C652.950989,1032.307129 650.449036,1029.298584 645.581543,1029.284424 
	C640.547119,1029.269775 637.678040,1032.589233 637.615784,1038.688232 
	C637.551453,1044.984619 637.601440,1051.282227 637.601440,1057.870117 
	C635.628235,1057.870117 633.547607,1057.870117 630.526733,1057.870117 
	C630.526733,1042.386353 630.526733,1026.841431 630.526733,1010.735168 
	C631.970825,1010.652771 634.175903,1010.526978 636.886475,1010.372314 
	C636.886475,1016.485779 636.886475,1022.068787 636.886475,1027.916626 
	C639.972046,1026.120239 642.409424,1023.984375 645.223694,1023.199707 
	C653.134644,1020.994141 659.633301,1025.766235 660.166809,1034.041260 
	C660.616577,1041.017212 660.594849,1048.023560 660.782227,1055.462646 
z"/>
<path fill="#FFFFFF" opacity="1.000000" stroke="none" 
	d="
M754.864380,263.464996 
	C758.056458,253.981583 761.175171,244.861664 764.243835,235.724899 
	C767.255737,226.757095 770.216675,217.772141 773.391357,208.218857 
	C776.371399,209.079926 779.295105,209.924713 782.902039,210.966934 
	C776.225586,231.024872 769.653503,250.769043 762.938416,270.943085 
	C759.624207,269.858002 756.709595,268.903748 753.522461,267.860260 
	C754.008484,266.285431 754.388733,265.053284 754.864380,263.464996 
z"/>
<path fill="#FFFFFF" opacity="1.000000" stroke="none" 
	d="
M751.300415,1038.867676 
	C744.592712,1036.499634 740.826843,1031.934326 739.344482,1025.482544 
	C737.049500,1015.494141 742.346436,1006.684814 751.627380,1004.872009 
	C761.221252,1002.998047 769.114197,1008.918091 771.118347,1019.854370 
	C763.475586,1022.260681 755.772034,1024.686157 748.022705,1027.125977 
	C752.416565,1035.620728 759.982971,1035.404053 767.823181,1026.598389 
	C769.344055,1027.274414 770.959351,1027.992432 772.580688,1028.713135 
	C768.751221,1037.095459 761.621399,1040.525879 751.300415,1038.867676 
M751.236511,1020.851013 
	C755.083008,1019.541870 758.929565,1018.232666 762.861389,1016.894409 
	C759.713501,1011.315613 756.277893,1009.574707 751.820496,1010.960815 
	C747.522461,1012.297485 745.627563,1015.908142 746.272461,1022.014404 
	C747.680786,1021.682495 749.060547,1021.357361 751.236511,1020.851013 
z"/>
<path fill="#FFFFFF" opacity="1.000000" stroke="none" 
	d="
M397.533203,979.549255 
	C389.123962,981.529480 381.254089,977.769409 377.814911,970.565247 
	C374.404968,963.422363 376.740143,954.188843 383.262695,949.024109 
	C389.859314,943.800720 397.548340,943.578674 403.969330,948.426025 
	C411.781647,954.323547 412.031219,964.031982 404.298340,973.281921 
	C401.107025,971.081055 397.858002,968.867737 394.638397,966.612366 
	C391.391693,964.338013 388.174316,962.021729 384.915955,959.703796 
	C380.371399,967.860168 385.340271,974.093445 396.780090,974.609619 
	C397.082489,976.071167 397.406860,977.638977 397.533203,979.549255 
M399.638977,963.932251 
	C400.673218,963.541931 402.326935,963.424622 402.639069,962.716187 
	C404.385559,958.752441 402.566864,953.979919 398.871155,952.056885 
	C394.961578,950.022522 390.628723,951.268372 387.917816,955.291260 
	C388.399567,955.703369 388.866638,956.159485 389.388702,956.540222 
	C392.595673,958.879517 395.815063,961.201721 399.638977,963.932251 
z"/>
<path fill="#FFFFFF" opacity="1.000000" stroke="none" 
	d="
M685.496216,1055.598389 
	C676.523804,1055.835815 671.979919,1052.213257 671.834290,1045.105957 
	C671.667358,1036.953857 677.755676,1033.615723 692.881287,1033.566162 
	C693.055725,1025.687866 686.188782,1024.196655 674.809509,1029.927246 
	C673.918884,1028.271851 673.020691,1026.602417 671.602112,1023.965698 
	C676.595459,1022.550232 681.055237,1020.676575 685.675171,1020.109985 
	C693.950195,1019.095276 698.953552,1023.110046 700.312561,1031.427124 
	C701.431641,1038.275879 702.047913,1045.206909 703.012451,1053.131958 
	C699.866333,1052.771484 697.365723,1052.485107 694.865173,1052.198608 
	C694.969543,1051.902222 695.073975,1051.605835 695.178406,1051.309448 
	C692.082825,1052.711182 688.987183,1054.112793 685.496216,1055.598389 
M694.715637,1041.448975 
	C694.091003,1040.466064 693.448181,1038.628052 692.844849,1038.640991 
	C689.290039,1038.716797 685.529480,1038.640869 682.288025,1039.836060 
	C680.710205,1040.417725 679.144226,1043.756104 679.361755,1045.640137 
	C679.542908,1047.208740 682.142090,1049.264038 684.010315,1049.724854 
	C689.136963,1050.989258 693.342407,1047.762939 694.715637,1041.448975 
z"/>
<path fill="#FFFFFF" opacity="1.000000" stroke="none" 
	d="
M317.865723,864.184937 
	C324.430481,874.628052 322.187378,884.871155 312.367065,890.598389 
	C303.881836,895.546997 293.151337,892.353455 288.439301,883.477112 
	C284.410431,875.887756 286.587891,866.174805 293.461060,861.075989 
	C301.322021,855.244568 309.580139,856.208069 317.865723,864.184937 
M309.064819,865.145996 
	C302.948975,861.827881 295.311890,867.137695 293.568207,872.697754 
	C291.843140,878.198303 294.938690,884.028748 300.486664,885.684570 
	C305.988129,887.326538 312.670715,883.443115 314.426666,877.409058 
	C315.908905,872.315552 314.233307,868.313782 309.064819,865.145996 
z"/>
<path fill="#FFFFFF" opacity="1.000000" stroke="none" 
	d="
M972.927856,880.376160 
	C975.734985,890.837158 970.855652,900.132324 961.441772,902.870117 
	C951.772156,905.682312 942.227417,900.435608 939.523193,890.821533 
	C936.995544,881.835144 942.314148,872.158936 951.240112,869.505005 
	C960.383545,866.786438 967.839905,870.413025 972.927856,880.376160 
M950.300537,894.299683 
	C956.666565,898.131470 962.724426,897.169983 965.909180,891.822266 
	C968.924988,886.758240 967.023621,880.526367 961.486023,877.325623 
	C956.732422,874.577942 951.076294,875.360107 947.868774,879.208313 
	C944.191162,883.620605 944.803650,888.549805 950.300537,894.299683 
z"/>
<path fill="#FFFFFF" opacity="1.000000" stroke="none" 
	d="
M333.693268,925.669922 
	C331.971344,927.222473 330.505585,928.535156 328.765869,930.093201 
	C327.174225,928.334473 325.756744,926.768188 324.061401,924.894897 
	C328.765808,920.471313 333.386963,916.267334 337.843872,911.895874 
	C342.383118,907.443726 342.701019,904.015381 339.214996,900.249084 
	C335.879944,896.645996 331.702240,896.450562 327.454468,900.739868 
	C323.134583,905.101746 319.552368,910.194275 315.247955,915.454590 
	C312.057343,912.047485 310.637817,910.531616 310.084808,909.941101 
	C317.598083,901.447510 324.935883,893.152222 332.795898,884.266663 
	C334.768219,887.898865 340.409424,888.370667 335.903015,893.541260 
	C337.393524,893.756348 338.326202,893.828003 339.229401,894.030884 
	C349.272949,896.286987 352.664978,907.000732 345.558777,914.449219 
	C341.886688,918.298157 337.831512,921.781555 333.693268,925.669922 
z"/>
<path fill="#FFFFFF" opacity="1.000000" stroke="none" 
	d="
M366.568329,952.577087 
	C364.594818,954.824402 362.858490,956.810303 360.919067,959.028503 
	C359.032379,957.460571 357.421661,956.122070 355.439362,954.474670 
	C359.488037,949.835144 363.346161,945.343872 367.282379,940.922058 
	C371.592651,936.080200 372.001312,932.035095 368.398621,928.759949 
	C364.595276,925.302490 360.030792,926.022278 355.921295,930.739075 
	C352.013855,935.224121 348.115448,939.716980 343.979462,944.475098 
	C342.037872,942.800232 340.454559,941.434448 338.609772,939.843079 
	C345.963226,931.315613 353.090302,923.050720 360.481628,914.479309 
	C362.660400,916.768433 367.679291,917.089966 363.884766,922.241272 
	C365.450958,922.327148 366.838593,922.290039 368.189331,922.495605 
	C377.600861,923.927551 381.834625,933.706299 376.181305,941.309509 
	C373.311859,945.168457 369.946594,948.658691 366.568329,952.577087 
z"/>
<path fill="#FFFFFF" opacity="1.000000" stroke="none" 
	d="
M427.284546,973.995056 
	C420.853760,976.001709 417.489777,980.231018 417.447052,985.892090 
	C417.393860,992.940552 421.955902,996.336182 431.576385,996.154602 
	C432.148254,997.689575 432.758240,999.326904 433.360504,1000.943481 
	C424.635834,1004.785339 414.349030,1000.317261 411.236938,991.628723 
	C407.730927,981.840271 413.470001,970.517517 423.318207,967.793457 
	C433.128021,965.080017 442.609772,971.053345 445.018585,981.751038 
	C443.172546,982.223633 441.315979,982.698853 439.194214,983.242004 
	C437.145691,977.731567 434.089600,973.650757 427.284546,973.995056 
z"/>
<path fill="#FFFFFF" opacity="1.000000" stroke="none" 
	d="
M449.513611,997.397888 
	C450.985565,994.201965 452.256744,991.327393 453.587189,988.318726 
	C452.623779,987.404236 451.692108,986.519958 450.609161,985.492065 
	C451.305084,983.981628 451.981293,982.513977 452.752991,980.839050 
	C454.289276,981.124207 455.676056,981.381592 457.281189,981.679504 
	C458.565582,979.204651 459.843231,976.742798 461.360382,973.819458 
	C463.484863,974.887939 465.450714,975.876648 467.709137,977.012512 
	C466.417236,979.918457 465.299103,982.433533 464.012634,985.327332 
	C466.493286,986.747864 468.881439,988.115356 471.692352,989.724976 
	C470.697540,991.583557 469.801117,993.258240 468.809998,995.109863 
	C465.995056,993.832825 463.478821,992.691223 460.591431,991.381287 
	C458.360474,995.621887 456.135010,999.640747 454.106628,1003.756775 
	C450.968689,1010.124390 451.692078,1011.518188 459.119263,1013.404480 
	C458.397003,1015.046387 457.698761,1016.633667 457.045166,1018.119446 
	C446.122223,1018.087952 442.408997,1012.233826 446.954071,1002.648315 
	C447.734436,1001.002502 448.526245,999.362061 449.513611,997.397888 
z"/>
<path fill="#FFFFFF" opacity="1.000000" stroke="none" 
	d="
M712.840881,1029.398193 
	C711.784363,1024.970337 710.835449,1020.945496 709.798706,1016.548096 
	C712.223328,1015.962585 714.255676,1015.471741 716.731567,1014.873840 
	C717.325134,1016.655762 717.876953,1018.312439 718.323120,1019.652039 
	C721.293091,1016.887695 724.469482,1013.931274 728.507935,1010.172485 
	C729.475342,1014.010437 730.026306,1016.195984 730.558594,1018.307739 
	C721.497559,1023.134277 719.984680,1026.553833 722.172546,1036.656738 
	C722.945618,1040.226196 723.662048,1043.808105 724.524780,1047.964478 
	C722.188110,1048.522949 720.057312,1049.032349 717.526794,1049.637207 
	C715.930481,1042.720947 714.439453,1036.260986 712.840881,1029.398193 
z"/>
<path fill="#FFFFFF" opacity="1.000000" stroke="none" 
	d="
M342.016388,318.158447 
	C350.471649,319.862274 354.602478,325.864105 352.148865,332.382050 
	C350.366730,337.116394 346.823212,339.535461 341.828278,339.610535 
	C337.324097,339.678284 333.131073,336.368805 331.769836,331.982086 
	C330.358093,327.432648 331.839996,323.053009 336.113495,320.261475 
	C337.720764,319.211548 339.770844,318.839569 342.016388,318.158447 
z"/>
<path fill="#FFFFFF" opacity="1.000000" stroke="none" 
	d="
M919.669800,321.650848 
	C923.823425,317.956055 928.113770,316.839966 932.706787,319.760956 
	C936.674683,322.284393 938.752075,326.004272 937.804077,330.806183 
	C936.879150,335.491089 933.903625,338.469269 929.214905,339.467773 
	C924.606812,340.449097 920.908203,338.623230 918.503113,334.806152 
	C915.758179,330.449860 915.868042,325.983704 919.669800,321.650848 
z"/>
<path fill="#FFFFFF" opacity="1.000000" stroke="none" 
	d="
M919.036133,909.711548 
	C917.995422,908.596863 917.209900,907.758606 916.143616,906.620789 
	C917.638977,905.012878 919.050720,903.494934 920.667053,901.756897 
	C922.203674,902.864197 923.589478,903.862793 924.551758,904.556152 
	C925.339417,900.649963 926.139832,896.680420 927.235535,891.246399 
	C930.369263,893.963501 932.045715,895.417053 933.895508,897.020935 
	C924.346436,911.503296 939.189636,916.076721 944.996460,924.823181 
	C943.563599,926.239319 942.062622,927.722900 940.262146,929.502380 
	C933.088623,922.827087 926.189941,916.407593 919.036133,909.711548 
z"/>
<path fill="#FFFFFF" opacity="1.000000" stroke="none" 
	d="
M842.612061,982.652466 
	C842.866272,989.158630 840.321106,993.316711 835.587524,994.695923 
	C831.171692,995.982544 826.107910,993.767700 823.732849,989.510742 
	C821.640076,985.759766 822.387451,980.672607 825.484253,977.589111 
	C830.980835,972.116150 839.103027,974.355469 842.612061,982.652466 
z"/>
<path fill="#FFFFFF" opacity="1.000000" stroke="none" 
	d="
M520.855225,1011.965393 
	C526.229370,1011.159119 530.188171,1012.810730 532.306763,1017.490601 
	C534.182190,1021.633484 533.612854,1025.730225 530.243042,1028.965454 
	C527.084473,1031.998047 522.831116,1033.202759 519.306030,1030.758301 
	C516.648376,1028.915283 514.179443,1025.397095 513.613770,1022.265564 
	C512.742004,1017.439087 515.650879,1013.748596 520.855225,1011.965393 
z"/>
<path fill="none" opacity="1.000000" stroke="none" 
	d="
M521.471741,306.125977 
	C598.668701,279.189301 675.477173,278.918304 751.911621,307.139709 
	C807.170959,327.542816 854.079102,360.590393 891.276428,406.144958 
	C963.283386,494.329987 987.012878,594.784546 961.455872,705.645996 
	C943.712524,782.613098 902.671326,846.002014 840.288269,894.625854 
	C769.098267,950.114197 688.083496,973.753601 598.217468,963.750977 
	C523.425781,955.426270 458.453766,924.693848 404.089020,872.590149 
	C345.843048,816.766602 311.018799,748.607544 300.730621,668.529297 
	C291.561554,597.161682 304.017700,529.292114 338.159607,465.921692 
	C379.085571,389.959473 440.261536,336.724365 521.471741,306.125977 
M445.407654,481.990784 
	C445.221527,482.306488 445.035431,482.622162 444.239441,483.222839 
	C442.704590,485.758911 441.169739,488.294983 439.110107,491.232361 
	C437.028839,494.803589 434.947540,498.374817 432.320526,502.340485 
	C430.473755,505.860870 428.626984,509.381226 426.212402,513.296204 
	C424.518921,517.195740 422.825439,521.095215 420.677368,525.556641 
	C418.818024,530.370911 416.958679,535.185120 414.626709,540.565125 
	C411.030121,554.363647 407.433533,568.162231 403.410736,582.609375 
	C402.543213,590.405212 401.675690,598.201050 400.456451,606.751465 
	C400.341125,611.166443 400.225769,615.581482 399.939331,620.917175 
	C400.070923,625.942261 400.202515,630.967346 400.156586,636.845947 
	C401.996307,649.167175 402.663177,661.802734 405.868011,673.757996 
	C425.168671,745.756897 470.022186,795.785156 538.275940,825.001343 
	C559.197632,833.956848 581.119690,839.350403 604.618225,840.864380 
	C605.085693,840.833679 605.553162,840.802917 606.493774,840.930054 
	C606.493774,840.930054 606.982910,840.832214 607.847290,841.018127 
	C611.217529,841.072327 614.587830,841.126526 618.837769,841.470642 
	C623.894226,841.351990 628.950745,841.233337 634.903076,841.309265 
	C637.037476,841.142944 639.191650,841.107239 641.302734,840.787170 
	C649.684326,839.516541 658.471375,839.984680 666.748596,835.046631 
	C668.194885,833.776733 669.498291,832.277039 671.110718,831.274475 
	C680.876953,825.202026 685.740173,816.388672 686.534241,804.141418 
	C687.398804,785.652344 672.713013,768.583801 654.000183,767.066467 
	C648.128113,766.590332 642.120239,767.789795 635.215820,768.122253 
	C628.416260,768.234253 621.610901,768.568909 614.818909,768.391174 
	C608.869019,768.235474 602.934204,767.504211 596.513977,766.429565 
	C586.676819,763.677490 576.839722,760.925476 566.426208,757.736572 
	C564.906372,757.069885 563.379211,756.419312 561.867859,755.733887 
	C549.966980,750.337341 538.280457,744.578674 528.022095,735.231262 
	C521.838745,729.441040 515.655396,723.650818 509.166534,717.222595 
	C506.853638,714.469971 504.159180,711.951904 502.296814,708.922302 
	C495.799164,698.352295 489.589172,687.605530 483.192383,676.167175 
	C479.699402,663.425293 476.206390,650.683411 472.796997,637.106445 
	C472.811249,623.406494 472.825500,609.706604 473.108429,595.230164 
	C474.087585,589.862793 475.066742,584.495422 476.447479,578.497192 
	C477.651703,574.335510 478.855957,570.173828 480.506622,565.468811 
	C481.668610,562.310181 482.830597,559.151489 484.425812,555.434937 
	C486.632751,550.957214 488.839691,546.479431 491.539978,541.545593 
	C494.011963,537.459106 496.483948,533.372620 499.493530,528.901489 
	C500.427460,527.511597 501.361389,526.121765 502.816772,524.225830 
	C504.962677,521.516357 507.108582,518.806824 509.837311,515.802429 
	C512.059631,513.263245 514.281982,510.724121 517.075928,507.903168 
	C521.032715,504.267670 524.989441,500.632202 529.593933,496.795288 
	C535.052124,492.830994 540.510376,488.866730 546.653687,484.787262 
	C552.101074,481.835815 557.548401,478.884399 563.713684,475.864136 
	C570.476074,473.237854 577.238464,470.611572 584.789612,468.044128 
	C589.900757,466.784027 595.011841,465.523926 600.991028,464.211700 
	C612.352173,463.528809 623.713379,462.845917 635.786194,462.559937 
	C641.485352,463.247040 647.184570,463.934143 653.548645,464.944153 
	C654.686157,465.137695 655.863831,465.203156 656.955017,465.544769 
	C666.964294,468.678314 676.958557,471.859741 687.457458,475.510193 
	C698.604980,482.441681 709.752441,489.373138 721.020935,496.699188 
	C721.191345,496.944153 721.425720,497.071869 722.008179,497.586212 
	C722.346008,497.743011 722.683838,497.899780 723.494507,498.496155 
	C731.830017,507.323364 740.165527,516.150574 748.678528,525.699646 
	C754.373779,535.602539 760.069092,545.505432 765.803955,556.132507 
	C766.570312,558.314514 767.048401,560.656616 768.154724,562.649902 
	C772.205933,569.948975 770.620728,577.351990 768.365356,585.000427 
	C768.112366,585.298462 767.859375,585.596497 767.199646,586.132446 
	C767.083801,586.572449 766.968018,587.012512 766.258423,587.844666 
	C763.116211,590.653137 759.973999,593.461670 756.036072,596.469971 
	C750.363892,597.007996 744.691711,597.546021 738.286682,597.796021 
	C732.510803,596.577942 726.734985,595.359863 720.167175,593.854126 
	C716.168213,593.214233 712.169189,592.574341 707.882690,591.306946 
	C707.355347,591.410156 706.827942,591.513306 706.207703,591.612000 
	C706.207703,591.612000 706.124084,591.571289 705.634399,591.055603 
	C697.757141,589.031677 689.879822,587.007690 681.387024,584.545654 
	C675.928772,583.347717 670.470520,582.149841 664.469055,580.611206 
	C663.370178,580.570190 662.231567,580.701416 661.179321,580.458557 
	C656.440125,579.364563 651.725464,578.164551 646.238708,576.732544 
	C644.900330,576.793823 643.561951,576.855103 641.929504,576.203552 
	C637.729370,576.401306 633.529175,576.599060 628.609619,576.648071 
	C624.693909,578.288513 620.778198,579.928955 616.183533,581.737732 
	C614.799988,583.159729 613.416504,584.581726 611.660156,586.589111 
	C608.760376,589.387207 605.860535,592.185242 602.483276,595.286072 
	C602.292664,595.805420 602.102051,596.324768 601.332397,597.255554 
	C599.598999,602.166931 597.865662,607.078369 595.980957,612.896606 
	C596.041504,616.257629 596.102112,619.618713 596.084961,623.754578 
	C596.999939,626.861328 597.914917,629.968140 598.887512,633.800049 
	C602.043945,638.448059 604.576233,643.712708 608.459106,647.643066 
	C632.114807,671.587952 656.094971,695.211914 679.933838,718.976196 
	C714.395142,753.329773 748.830750,787.709106 783.270264,822.084595 
	C787.647705,826.453979 792.753662,829.310608 799.762451,830.214600 
	C803.858215,830.191895 807.953918,830.169250 812.841431,830.196411 
	C815.567932,829.341797 818.294495,828.487244 821.664429,827.499207 
	C824.470520,825.344910 827.276611,823.190613 830.696106,820.806946 
	C832.130432,819.208557 833.564697,817.610168 835.187378,815.683777 
	C835.187378,815.683777 835.121948,815.311279 835.741272,814.954956 
	C835.659485,814.394958 835.577698,813.835022 835.920471,813.755005 
	C836.577881,813.172546 837.235291,812.590027 838.163391,811.819702 
	C838.163391,811.819702 838.147156,811.490845 838.689392,811.068665 
	C838.910889,810.426270 839.132385,809.783936 839.826782,808.600525 
	C840.564636,805.427185 841.302551,802.253845 842.493774,798.425903 
	C842.383972,795.578491 842.274170,792.731018 842.198669,789.911560 
	C842.198669,789.911560 842.200928,789.866760 842.211914,789.060791 
	C840.793762,785.715088 839.375671,782.369385 838.035828,778.264709 
	C836.645996,771.175964 830.195984,768.096802 826.007324,763.251892 
	C820.875305,757.315979 815.350342,751.719727 810.325012,745.769043 
	C810.513672,745.569031 810.605591,745.331604 811.134033,744.654602 
	C811.798645,743.522217 812.463257,742.389832 813.711243,740.882690 
	C815.283813,738.305603 816.856323,735.728577 818.942932,732.737793 
	C820.904602,729.162964 822.866211,725.588074 825.304749,721.479431 
	C827.238586,717.413208 829.172485,713.346924 831.653320,708.781616 
	C832.807983,705.938171 833.962585,703.094727 835.659973,699.758972 
	C838.303528,691.882874 840.947083,684.006775 843.912598,675.495911 
	C844.995789,670.333252 846.078979,665.170654 847.625183,659.388550 
	C848.800964,646.253784 849.976746,633.118958 851.362854,619.079407 
	C851.236023,615.053467 851.109192,611.027527 851.127808,606.084045 
	C850.711792,601.218201 850.295776,596.352295 849.836365,590.662903 
	C849.289551,588.081055 848.742798,585.499207 848.102173,582.023621 
	C847.089844,576.002441 846.077515,569.981262 844.930420,563.393738 
	C844.581421,562.932312 844.232483,562.470886 844.007385,561.242310 
	C843.378845,559.147278 842.750366,557.052246 842.130249,554.122559 
	C840.058167,548.085388 837.986145,542.048157 836.040649,535.236694 
	C829.637207,522.171570 823.233765,509.106476 816.628479,495.404480 
	C797.616699,466.150635 773.660034,441.826385 743.942444,423.456238 
	C735.677246,418.347046 726.700500,414.388885 717.696045,409.305115 
	C707.136475,405.516022 696.576904,401.726929 685.276550,397.841919 
	C679.534851,396.700745 673.793091,395.559570 667.428650,394.146637 
	C665.616394,393.794769 663.804138,393.442902 661.285400,392.705231 
	C659.187683,392.513245 657.090027,392.321228 654.208313,392.000671 
	C652.177063,391.605988 650.145874,391.211304 647.391174,390.403412 
	C642.595459,390.575714 637.799805,390.747986 632.261353,390.750336 
	C630.171692,390.555573 628.081970,390.360840 625.308838,389.766541 
	C624.541016,389.860992 623.773254,389.955414 622.087402,389.966309 
	C618.723572,389.999756 615.359802,390.033203 611.101440,389.930420 
	C600.410217,391.379974 589.718994,392.829498 578.263489,394.257507 
	C570.174927,396.611633 562.086304,398.965759 553.294922,401.404572 
	C549.193420,402.995605 545.091919,404.586670 540.289246,406.242920 
	C535.476196,408.581055 530.663208,410.919159 525.121277,413.465027 
	C520.662598,416.027100 516.203979,418.589203 511.031525,421.370148 
	C504.061371,426.262939 497.091217,431.155731 489.465912,436.244049 
	C483.569122,441.462921 477.672333,446.681793 471.170837,452.150940 
	C468.735901,454.664062 466.300934,457.177185 463.252655,459.996002 
	C461.073822,462.625641 458.894958,465.255310 456.133423,468.186310 
	C453.556396,471.477997 450.979370,474.769684 447.952240,478.410583 
	C447.225098,479.556335 446.497925,480.702118 445.891052,481.907379 
	C445.891052,481.907379 445.920685,481.776459 445.407654,481.990784 
z"/>
<path fill="none" opacity="1.000000" stroke="none" 
	d="
M623.778931,206.432098 
	C627.812195,214.350754 628.307495,221.930328 623.884705,230.091660 
	C620.316223,227.317841 616.982727,224.726654 613.246826,221.822647 
	C611.511780,224.006256 609.804260,226.155197 607.924988,228.520309 
	C611.323486,231.348633 614.588867,234.066147 617.903259,236.824463 
	C608.578796,243.759338 595.668579,242.521942 588.445374,234.235809 
	C580.310242,224.903580 580.570862,209.864502 589.013611,201.448273 
	C597.318665,193.169266 610.060547,192.673782 618.767944,200.434952 
	C620.604370,202.071762 622.007263,204.195007 623.778931,206.432098 
z"/>
<path fill="none" opacity="1.000000" stroke="none" 
	d="
M710.790710,201.918167 
	C717.769226,204.813370 720.270874,209.145813 718.776978,215.139053 
	C717.333801,220.928711 713.127197,223.869659 706.264282,223.136337 
	C700.030518,222.470261 693.862549,221.188446 687.317139,220.121246 
	C688.606506,212.842072 689.807739,206.060410 691.143127,198.521378 
	C697.771851,199.665131 704.083557,200.754181 710.790710,201.918167 
z"/>
<path fill="none" opacity="1.000000" stroke="none" 
	d="
M829.862549,242.189209 
	C834.440613,244.617188 838.811646,246.705902 842.870605,249.285583 
	C852.733948,255.554169 855.282288,267.378967 849.342346,278.243469 
	C843.733643,288.502167 832.032837,292.375885 821.518311,287.337036 
	C817.333984,285.331848 813.278442,283.057770 808.476318,280.546295 
	C815.579468,267.555939 822.546509,254.814606 829.862549,242.189209 
z"/>
<path fill="none" opacity="1.000000" stroke="none" 
	d="
M750.838379,1020.941650 
	C749.060547,1021.357361 747.680786,1021.682495 746.272461,1022.014404 
	C745.627563,1015.908142 747.522461,1012.297485 751.820496,1010.960815 
	C756.277893,1009.574707 759.713501,1011.315613 762.861389,1016.894409 
	C758.929565,1018.232666 755.083008,1019.541870 750.838379,1020.941650 
z"/>
<path fill="none" opacity="1.000000" stroke="none" 
	d="
M399.334656,963.730957 
	C395.815063,961.201721 392.595673,958.879517 389.388702,956.540222 
	C388.866638,956.159485 388.399567,955.703369 387.917816,955.291260 
	C390.628723,951.268372 394.961578,950.022522 398.871155,952.056885 
	C402.566864,953.979919 404.385559,958.752441 402.639069,962.716187 
	C402.326935,963.424622 400.673218,963.541931 399.334656,963.730957 
z"/>
<path fill="none" opacity="1.000000" stroke="none" 
	d="
M694.715576,1041.844482 
	C693.342407,1047.762939 689.136963,1050.989258 684.010315,1049.724854 
	C682.142090,1049.264038 679.542908,1047.208740 679.361755,1045.640137 
	C679.144226,1043.756104 680.710205,1040.417725 682.288025,1039.836060 
	C685.529480,1038.640869 689.290039,1038.716797 692.844849,1038.640991 
	C693.448181,1038.628052 694.091003,1040.466064 694.715576,1041.844482 
z"/>
<path fill="none" opacity="1.000000" stroke="none" 
	d="
M309.409302,865.314453 
	C314.233307,868.313782 315.908905,872.315552 314.426666,877.409058 
	C312.670715,883.443115 305.988129,887.326538 300.486664,885.684570 
	C294.938690,884.028748 291.843140,878.198303 293.568207,872.697754 
	C295.311890,867.137695 302.948975,861.827881 309.409302,865.314453 
z"/>
<path fill="none" opacity="1.000000" stroke="none" 
	d="
M949.994324,894.074341 
	C944.803650,888.549805 944.191162,883.620605 947.868774,879.208313 
	C951.076294,875.360107 956.732422,874.577942 961.486023,877.325623 
	C967.023621,880.526367 968.924988,886.758240 965.909180,891.822266 
	C962.724426,897.169983 956.666565,898.131470 949.994324,894.074341 
z"/>
<!-- QR Code center - gradient Q removed, A7GH9 label below -->
<g id="qr-center">
  <rect x="424.78" y="407.78" width="19.26" height="19.26" fill="#FFFFFF"/>  <rect x="444.04" y="407.78" width="19.26" height="19.26" fill="#FFFFFF"/>  <rect x="463.30" y="407.78" width="19.26" height="19.26" fill="#FFFFFF"/>  <rect x="482.56" y="407.78" width="19.26" height="19.26" fill="#FFFFFF"/>  <rect x="501.81" y="407.78" width="19.26" height="19.26" fill="#FFFFFF"/>  <rect x="521.07" y="407.78" width="19.26" height="19.26" fill="#FFFFFF"/>  <rect x="540.33" y="407.78" width="19.26" height="19.26" fill="#FFFFFF"/>  <rect x="617.37" y="407.78" width="19.26" height="19.26" fill="#FFFFFF"/>  <rect x="655.89" y="407.78" width="19.26" height="19.26" fill="#FFFFFF"/>  <rect x="694.41" y="407.78" width="19.26" height="19.26" fill="#FFFFFF"/>  <rect x="713.67" y="407.78" width="19.26" height="19.26" fill="#FFFFFF"/>  <rect x="732.93" y="407.78" width="19.26" height="19.26" fill="#FFFFFF"/>  <rect x="752.19" y="407.78" width="19.26" height="19.26" fill="#FFFFFF"/>  <rect x="771.44" y="407.78" width="19.26" height="19.26" fill="#FFFFFF"/>  <rect x="790.70" y="407.78" width="19.26" height="19.26" fill="#FFFFFF"/>  <rect x="809.96" y="407.78" width="19.26" height="19.26" fill="#FFFFFF"/>  <rect x="424.78" y="427.04" width="19.26" height="19.26" fill="#FFFFFF"/>  <rect x="540.33" y="427.04" width="19.26" height="19.26" fill="#FFFFFF"/>  <rect x="578.85" y="427.04" width="19.26" height="19.26" fill="#FFFFFF"/>  <rect x="617.37" y="427.04" width="19.26" height="19.26" fill="#FFFFFF"/>  <rect x="694.41" y="427.04" width="19.26" height="19.26" fill="#FFFFFF"/>  <rect x="809.96" y="427.04" width="19.26" height="19.26" fill="#FFFFFF"/>  <rect x="424.78" y="446.30" width="19.26" height="19.26" fill="#FFFFFF"/>  <rect x="463.30" y="446.30" width="19.26" height="19.26" fill="#FFFFFF"/>  <rect x="482.56" y="446.30" width="19.26" height="19.26" fill="#FFFFFF"/>  <rect x="501.81" y="446.30" width="19.26" height="19.26" fill="#FFFFFF"/>  <rect x="540.33" y="446.30" width="19.26" height="19.26" fill="#FFFFFF"/>  <rect x="617.37" y="446.30" width="19.26" height="19.26" fill="#FFFFFF"/>  <rect x="636.63" y="446.30" width="19.26" height="19.26" fill="#FFFFFF"/>  <rect x="655.89" y="446.30" width="19.26" height="19.26" fill="#FFFFFF"/>  <rect x="694.41" y="446.30" width="19.26" height="19.26" fill="#FFFFFF"/>  <rect x="732.93" y="446.30" width="19.26" height="19.26" fill="#FFFFFF"/>  <rect x="752.19" y="446.30" width="19.26" height="19.26" fill="#FFFFFF"/>  <rect x="771.44" y="446.30" width="19.26" height="19.26" fill="#FFFFFF"/>  <rect x="809.96" y="446.30" width="19.26" height="19.26" fill="#FFFFFF"/>  <rect x="424.78" y="465.56" width="19.26" height="19.26" fill="#FFFFFF"/>  <rect x="463.30" y="465.56" width="19.26" height="19.26" fill="#FFFFFF"/>  <rect x="482.56" y="465.56" width="19.26" height="19.26" fill="#FFFFFF"/>  <rect x="501.81" y="465.56" width="19.26" height="19.26" fill="#FFFFFF"/>  <rect x="540.33" y="465.56" width="19.26" height="19.26" fill="#FFFFFF"/>  <rect x="598.11" y="465.56" width="19.26" height="19.26" fill="#FFFFFF"/>  <rect x="636.63" y="465.56" width="19.26" height="19.26" fill="#FFFFFF"/>  <rect x="655.89" y="465.56" width="19.26" height="19.26" fill="#FFFFFF"/>  <rect x="694.41" y="465.56" width="19.26" height="19.26" fill="#FFFFFF"/>  <rect x="732.93" y="465.56" width="19.26" height="19.26" fill="#FFFFFF"/>  <rect x="752.19" y="465.56" width="19.26" height="19.26" fill="#FFFFFF"/>  <rect x="771.44" y="465.56" width="19.26" height="19.26" fill="#FFFFFF"/>  <rect x="809.96" y="465.56" width="19.26" height="19.26" fill="#FFFFFF"/>  <rect x="424.78" y="484.81" width="19.26" height="19.26" fill="#FFFFFF"/>  <rect x="463.30" y="484.81" width="19.26" height="19.26" fill="#FFFFFF"/>  <rect x="482.56" y="484.81" width="19.26" height="19.26" fill="#FFFFFF"/>  <rect x="501.81" y="484.81" width="19.26" height="19.26" fill="#FFFFFF"/>  <rect x="540.33" y="484.81" width="19.26" height="19.26" fill="#FFFFFF"/>  <rect x="578.85" y="484.81" width="19.26" height="19.26" fill="#FFFFFF"/>  <rect x="694.41" y="484.81" width="19.26" height="19.26" fill="#FFFFFF"/>  <rect x="732.93" y="484.81" width="19.26" height="19.26" fill="#FFFFFF"/>  <rect x="752.19" y="484.81" width="19.26" height="19.26" fill="#FFFFFF"/>  <rect x="771.44" y="484.81" width="19.26" height="19.26" fill="#FFFFFF"/>  <rect x="809.96" y="484.81" width="19.26" height="19.26" fill="#FFFFFF"/>  <rect x="424.78" y="504.07" width="19.26" height="19.26" fill="#FFFFFF"/>  <rect x="540.33" y="504.07" width="19.26" height="19.26" fill="#FFFFFF"/>  <rect x="598.11" y="504.07" width="19.26" height="19.26" fill="#FFFFFF"/>  <rect x="655.89" y="504.07" width="19.26" height="19.26" fill="#FFFFFF"/>  <rect x="694.41" y="504.07" width="19.26" height="19.26" fill="#FFFFFF"/>  <rect x="809.96" y="504.07" width="19.26" height="19.26" fill="#FFFFFF"/>  <rect x="424.78" y="523.33" width="19.26" height="19.26" fill="#FFFFFF"/>  <rect x="444.04" y="523.33" width="19.26" height="19.26" fill="#FFFFFF"/>  <rect x="463.30" y="523.33" width="19.26" height="19.26" fill="#FFFFFF"/>  <rect x="482.56" y="523.33" width="19.26" height="19.26" fill="#FFFFFF"/>  <rect x="501.81" y="523.33" width="19.26" height="19.26" fill="#FFFFFF"/>  <rect x="521.07" y="523.33" width="19.26" height="19.26" fill="#FFFFFF"/>  <rect x="540.33" y="523.33" width="19.26" height="19.26" fill="#FFFFFF"/>  <rect x="578.85" y="523.33" width="19.26" height="19.26" fill="#FFFFFF"/>  <rect x="617.37" y="523.33" width="19.26" height="19.26" fill="#FFFFFF"/>  <rect x="655.89" y="523.33" width="19.26" height="19.26" fill="#FFFFFF"/>  <rect x="694.41" y="523.33" width="19.26" height="19.26" fill="#FFFFFF"/>  <rect x="713.67" y="523.33" width="19.26" height="19.26" fill="#FFFFFF"/>  <rect x="732.93" y="523.33" width="19.26" height="19.26" fill="#FFFFFF"/>  <rect x="752.19" y="523.33" width="19.26" height="19.26" fill="#FFFFFF"/>  <rect x="771.44" y="523.33" width="19.26" height="19.26" fill="#FFFFFF"/>  <rect x="790.70" y="523.33" width="19.26" height="19.26" fill="#FFFFFF"/>  <rect x="809.96" y="523.33" width="19.26" height="19.26" fill="#FFFFFF"/>  <rect x="598.11" y="542.59" width="19.26" height="19.26" fill="#FFFFFF"/>  <rect x="617.37" y="542.59" width="19.26" height="19.26" fill="#FFFFFF"/>  <rect x="424.78" y="561.85" width="19.26" height="19.26" fill="#FFFFFF"/>  <rect x="463.30" y="561.85" width="19.26" height="19.26" fill="#FFFFFF"/>  <rect x="501.81" y="561.85" width="19.26" height="19.26" fill="#FFFFFF"/>  <rect x="540.33" y="561.85" width="19.26" height="19.26" fill="#FFFFFF"/>  <rect x="617.37" y="561.85" width="19.26" height="19.26" fill="#FFFFFF"/>  <rect x="655.89" y="561.85" width="19.26" height="19.26" fill="#FFFFFF"/>  <rect x="732.93" y="561.85" width="19.26" height="19.26" fill="#FFFFFF"/>  <rect x="790.70" y="561.85" width="19.26" height="19.26" fill="#FFFFFF"/>  <rect x="424.78" y="581.11" width="19.26" height="19.26" fill="#FFFFFF"/>  <rect x="463.30" y="581.11" width="19.26" height="19.26" fill="#FFFFFF"/>  <rect x="482.56" y="581.11" width="19.26" height="19.26" fill="#FFFFFF"/>  <rect x="501.81" y="581.11" width="19.26" height="19.26" fill="#FFFFFF"/>  <rect x="559.59" y="581.11" width="19.26" height="19.26" fill="#FFFFFF"/>  <rect x="598.11" y="581.11" width="19.26" height="19.26" fill="#FFFFFF"/>  <rect x="675.15" y="581.11" width="19.26" height="19.26" fill="#FFFFFF"/>  <rect x="752.19" y="581.11" width="19.26" height="19.26" fill="#FFFFFF"/>  <rect x="771.44" y="581.11" width="19.26" height="19.26" fill="#FFFFFF"/>  <rect x="790.70" y="581.11" width="19.26" height="19.26" fill="#FFFFFF"/>  <rect x="809.96" y="581.11" width="19.26" height="19.26" fill="#FFFFFF"/>  <rect x="424.78" y="600.37" width="19.26" height="19.26" fill="#FFFFFF"/>  <rect x="444.04" y="600.37" width="19.26" height="19.26" fill="#FFFFFF"/>  <rect x="521.07" y="600.37" width="19.26" height="19.26" fill="#FFFFFF"/>  <rect x="540.33" y="600.37" width="19.26" height="19.26" fill="#FFFFFF"/>  <rect x="655.89" y="600.37" width="19.26" height="19.26" fill="#FFFFFF"/>  <rect x="675.15" y="600.37" width="19.26" height="19.26" fill="#FFFFFF"/>  <rect x="694.41" y="600.37" width="19.26" height="19.26" fill="#FFFFFF"/>  <rect x="732.93" y="600.37" width="19.26" height="19.26" fill="#FFFFFF"/>  <rect x="752.19" y="600.37" width="19.26" height="19.26" fill="#FFFFFF"/>  <rect x="809.96" y="600.37" width="19.26" height="19.26" fill="#FFFFFF"/>  <rect x="463.30" y="619.63" width="19.26" height="19.26" fill="#FFFFFF"/>  <rect x="521.07" y="619.63" width="19.26" height="19.26" fill="#FFFFFF"/>  <rect x="617.37" y="619.63" width="19.26" height="19.26" fill="#FFFFFF"/>  <rect x="636.63" y="619.63" width="19.26" height="19.26" fill="#FFFFFF"/>  <rect x="694.41" y="619.63" width="19.26" height="19.26" fill="#FFFFFF"/>  <rect x="713.67" y="619.63" width="19.26" height="19.26" fill="#FFFFFF"/>  <rect x="752.19" y="619.63" width="19.26" height="19.26" fill="#FFFFFF"/>  <rect x="771.44" y="619.63" width="19.26" height="19.26" fill="#FFFFFF"/>  <rect x="424.78" y="638.89" width="19.26" height="19.26" fill="#FFFFFF"/>  <rect x="501.81" y="638.89" width="19.26" height="19.26" fill="#FFFFFF"/>  <rect x="521.07" y="638.89" width="19.26" height="19.26" fill="#FFFFFF"/>  <rect x="540.33" y="638.89" width="19.26" height="19.26" fill="#FFFFFF"/>  <rect x="559.59" y="638.89" width="19.26" height="19.26" fill="#FFFFFF"/>  <rect x="578.85" y="638.89" width="19.26" height="19.26" fill="#FFFFFF"/>  <rect x="636.63" y="638.89" width="19.26" height="19.26" fill="#FFFFFF"/>  <rect x="713.67" y="638.89" width="19.26" height="19.26" fill="#FFFFFF"/>  <rect x="771.44" y="638.89" width="19.26" height="19.26" fill="#FFFFFF"/>  <rect x="578.85" y="658.15" width="19.26" height="19.26" fill="#FFFFFF"/>  <rect x="636.63" y="658.15" width="19.26" height="19.26" fill="#FFFFFF"/>  <rect x="655.89" y="658.15" width="19.26" height="19.26" fill="#FFFFFF"/>  <rect x="694.41" y="658.15" width="19.26" height="19.26" fill="#FFFFFF"/>  <rect x="713.67" y="658.15" width="19.26" height="19.26" fill="#FFFFFF"/>  <rect x="732.93" y="658.15" width="19.26" height="19.26" fill="#FFFFFF"/>  <rect x="809.96" y="658.15" width="19.26" height="19.26" fill="#FFFFFF"/>  <rect x="424.78" y="677.41" width="19.26" height="19.26" fill="#FFFFFF"/>  <rect x="444.04" y="677.41" width="19.26" height="19.26" fill="#FFFFFF"/>  <rect x="463.30" y="677.41" width="19.26" height="19.26" fill="#FFFFFF"/>  <rect x="482.56" y="677.41" width="19.26" height="19.26" fill="#FFFFFF"/>  <rect x="501.81" y="677.41" width="19.26" height="19.26" fill="#FFFFFF"/>  <rect x="521.07" y="677.41" width="19.26" height="19.26" fill="#FFFFFF"/>  <rect x="540.33" y="677.41" width="19.26" height="19.26" fill="#FFFFFF"/>  <rect x="598.11" y="677.41" width="19.26" height="19.26" fill="#FFFFFF"/>  <rect x="636.63" y="677.41" width="19.26" height="19.26" fill="#FFFFFF"/>  <rect x="694.41" y="677.41" width="19.26" height="19.26" fill="#FFFFFF"/>  <rect x="713.67" y="677.41" width="19.26" height="19.26" fill="#FFFFFF"/>  <rect x="771.44" y="677.41" width="19.26" height="19.26" fill="#FFFFFF"/>  <rect x="809.96" y="677.41" width="19.26" height="19.26" fill="#FFFFFF"/>  <rect x="424.78" y="696.67" width="19.26" height="19.26" fill="#FFFFFF"/>  <rect x="540.33" y="696.67" width="19.26" height="19.26" fill="#FFFFFF"/>  <rect x="598.11" y="696.67" width="19.26" height="19.26" fill="#FFFFFF"/>  <rect x="675.15" y="696.67" width="19.26" height="19.26" fill="#FFFFFF"/>  <rect x="752.19" y="696.67" width="19.26" height="19.26" fill="#FFFFFF"/>  <rect x="771.44" y="696.67" width="19.26" height="19.26" fill="#FFFFFF"/>  <rect x="424.78" y="715.93" width="19.26" height="19.26" fill="#FFFFFF"/>  <rect x="463.30" y="715.93" width="19.26" height="19.26" fill="#FFFFFF"/>  <rect x="482.56" y="715.93" width="19.26" height="19.26" fill="#FFFFFF"/>  <rect x="501.81" y="715.93" width="19.26" height="19.26" fill="#FFFFFF"/>  <rect x="540.33" y="715.93" width="19.26" height="19.26" fill="#FFFFFF"/>  <rect x="578.85" y="715.93" width="19.26" height="19.26" fill="#FFFFFF"/>  <rect x="617.37" y="715.93" width="19.26" height="19.26" fill="#FFFFFF"/>  <rect x="655.89" y="715.93" width="19.26" height="19.26" fill="#FFFFFF"/>  <rect x="675.15" y="715.93" width="19.26" height="19.26" fill="#FFFFFF"/>  <rect x="694.41" y="715.93" width="19.26" height="19.26" fill="#FFFFFF"/>  <rect x="732.93" y="715.93" width="19.26" height="19.26" fill="#FFFFFF"/>  <rect x="752.19" y="715.93" width="19.26" height="19.26" fill="#FFFFFF"/>  <rect x="771.44" y="715.93" width="19.26" height="19.26" fill="#FFFFFF"/>  <rect x="790.70" y="715.93" width="19.26" height="19.26" fill="#FFFFFF"/>  <rect x="809.96" y="715.93" width="19.26" height="19.26" fill="#FFFFFF"/>  <rect x="424.78" y="735.19" width="19.26" height="19.26" fill="#FFFFFF"/>  <rect x="463.30" y="735.19" width="19.26" height="19.26" fill="#FFFFFF"/>  <rect x="482.56" y="735.19" width="19.26" height="19.26" fill="#FFFFFF"/>  <rect x="501.81" y="735.19" width="19.26" height="19.26" fill="#FFFFFF"/>  <rect x="540.33" y="735.19" width="19.26" height="19.26" fill="#FFFFFF"/>  <rect x="598.11" y="735.19" width="19.26" height="19.26" fill="#FFFFFF"/>  <rect x="617.37" y="735.19" width="19.26" height="19.26" fill="#FFFFFF"/>  <rect x="675.15" y="735.19" width="19.26" height="19.26" fill="#FFFFFF"/>  <rect x="752.19" y="735.19" width="19.26" height="19.26" fill="#FFFFFF"/>  <rect x="790.70" y="735.19" width="19.26" height="19.26" fill="#FFFFFF"/>  <rect x="424.78" y="754.44" width="19.26" height="19.26" fill="#FFFFFF"/>  <rect x="463.30" y="754.44" width="19.26" height="19.26" fill="#FFFFFF"/>  <rect x="482.56" y="754.44" width="19.26" height="19.26" fill="#FFFFFF"/>  <rect x="501.81" y="754.44" width="19.26" height="19.26" fill="#FFFFFF"/>  <rect x="540.33" y="754.44" width="19.26" height="19.26" fill="#FFFFFF"/>  <rect x="578.85" y="754.44" width="19.26" height="19.26" fill="#FFFFFF"/>  <rect x="617.37" y="754.44" width="19.26" height="19.26" fill="#FFFFFF"/>  <rect x="655.89" y="754.44" width="19.26" height="19.26" fill="#FFFFFF"/>  <rect x="675.15" y="754.44" width="19.26" height="19.26" fill="#FFFFFF"/>  <rect x="694.41" y="754.44" width="19.26" height="19.26" fill="#FFFFFF"/>  <rect x="732.93" y="754.44" width="19.26" height="19.26" fill="#FFFFFF"/>  <rect x="771.44" y="754.44" width="19.26" height="19.26" fill="#FFFFFF"/>  <rect x="809.96" y="754.44" width="19.26" height="19.26" fill="#FFFFFF"/>  <rect x="424.78" y="773.70" width="19.26" height="19.26" fill="#FFFFFF"/>  <rect x="540.33" y="773.70" width="19.26" height="19.26" fill="#FFFFFF"/>  <rect x="636.63" y="773.70" width="19.26" height="19.26" fill="#FFFFFF"/>  <rect x="694.41" y="773.70" width="19.26" height="19.26" fill="#FFFFFF"/>  <rect x="713.67" y="773.70" width="19.26" height="19.26" fill="#FFFFFF"/>  <rect x="771.44" y="773.70" width="19.26" height="19.26" fill="#FFFFFF"/>  <rect x="790.70" y="773.70" width="19.26" height="19.26" fill="#FFFFFF"/>  <rect x="809.96" y="773.70" width="19.26" height="19.26" fill="#FFFFFF"/>  <rect x="424.78" y="792.96" width="19.26" height="19.26" fill="#FFFFFF"/>  <rect x="444.04" y="792.96" width="19.26" height="19.26" fill="#FFFFFF"/>  <rect x="463.30" y="792.96" width="19.26" height="19.26" fill="#FFFFFF"/>  <rect x="482.56" y="792.96" width="19.26" height="19.26" fill="#FFFFFF"/>  <rect x="501.81" y="792.96" width="19.26" height="19.26" fill="#FFFFFF"/>  <rect x="521.07" y="792.96" width="19.26" height="19.26" fill="#FFFFFF"/>  <rect x="540.33" y="792.96" width="19.26" height="19.26" fill="#FFFFFF"/>  <rect x="578.85" y="792.96" width="19.26" height="19.26" fill="#FFFFFF"/>  <rect x="617.37" y="792.96" width="19.26" height="19.26" fill="#FFFFFF"/>  <rect x="636.63" y="792.96" width="19.26" height="19.26" fill="#FFFFFF"/>  <rect x="713.67" y="792.96" width="19.26" height="19.26" fill="#FFFFFF"/>  <rect x="809.96" y="792.96" width="19.26" height="19.26" fill="#FFFFFF"/>
  <text x="627" y="925.0" text-anchor="middle"
        font-family="Arial Black, Arial, sans-serif"
        font-size="42" font-weight="900"
        fill="#FFFFFF" letter-spacing="10">A7GH9</text>
</g>
</svg>